<?xml version="1.0" encoding="UTF-8" standalone="no"?>
<svg
   version="1.0"
   width="300.000000pt"
   height="300.000000pt"
   viewBox="0 0 300.000000 300.000000"
   preserveAspectRatio="xMidYMid meet"
   id="svg1214"
   sodipodi:docname="CzNy3H01.svg"
   inkscape:version="1.1.1 (c3084ef, 2021-09-22)"
   xmlns:inkscape="http://www.inkscape.org/namespaces/inkscape"
   xmlns:sodipodi="http://sodipodi.sourceforge.net/DTD/sodipodi-0.dtd"
   xmlns="http://www.w3.org/2000/svg"
   xmlns:svg="http://www.w3.org/2000/svg">
  <defs
     id="defs1218" />
  <sodipodi:namedview
     id="namedview1216"
     pagecolor="#ffffff"
     bordercolor="#666666"
     borderopacity="1.0"
     inkscape:pageshadow="2"
     inkscape:pageopacity="0.0"
     inkscape:pagecheckerboard="0"
     inkscape:document-units="pt"
     showgrid="false"
     inkscape:zoom="0.83395396"
     inkscape:cx="161.27989"
     inkscape:cy="279.99147"
     inkscape:window-width="1312"
     inkscape:window-height="969"
     inkscape:window-x="0"
     inkscape:window-y="25"
     inkscape:window-maximized="0"
     inkscape:current-layer="svg1214" />
  <metadata
     id="metadata824">
Created by potrace 1.10, written by Peter Selinger 2001-2011
</metadata>
  <g
     transform="translate(0.000000,300.000000) scale(0.100000,-0.100000)"
     fill="#000000"
     stroke="none"
     id="g1212">
    <path
       d="M1150 2615 c-71 -38 -91 -46 -101 -39 -9 5 -39 -18 -39 -31 0 -9 74 6 81 17 3 5 20 10 37 10 21 1 29 5 25 15 -3 8 5 15 26 19 17 4 31 13 31 20 0 18 -7 17 -60 -11z"
       id="path832" />
    <path
       d="M1271 2598 c-1 -14 -10 -18 -36 -18 -25 0 -44 -8 -60 -24 -22 -23 -23 -26 -10 -53 7 -15 18 -40 24 -55 6 -16 15 -28 21 -28 5 0 10 -7 10 -15 0 -8 5 -15 10 -15 6 0 10 -9 10 -21 0 -11 5 -17 10 -14 6 3 10 1 10 -6 0 -7 3 -9 7 -6 3 4 12 2 20 -4 7 -6 13 -7 13 -2 0 5 -11 16 -25 23 -18 10 -25 22 -25 42 0 16 -4 27 -9 24 -11 -7 -41 63 -38 92 1 12 7 22 12 22 6 -1 36 -26 67 -56 55 -51 78 -65 78 -45 0 5 -6 12 -12 14 -8 3 -6 6 4 6 10 1 22 -7 27 -18 12 -22 85 -36 77 -15 -3 8 1 11 10 7 10 -4 14 3 14 23 0 22 -3 25 -12 16 -17 -17 -28 -15 -28 5 0 20 -48 65 -61 57 -5 -3 -9 0 -9 5 0 6 -7 11 -16 11 -11 0 -14 5 -10 16 5 12 2 15 -10 10 -8 -3 -17 -6 -19 -6 -2 0 3 -14 12 -30 8 -17 19 -28 24 -25 5 4 9 1 9 -5 0 -6 5 -8 10 -5 6 3 10 2 10 -2 0 -5 10 -13 23 -18 30 -13 36 -55 8 -55 -12 0 -21 6 -21 15 0 9 -11 20 -24 24 -30 12 -76 54 -76 71 0 7 -8 10 -20 7 -22 -6 -23 12 -1 29 8 6 11 17 8 25 -4 10 -6 9 -6 -3z"
       id="path836" />
    <path
       d="M1380 2594 c1 -13 17 -27 50 -43 28 -13 50 -29 50 -34 0 -6 3 -7 7 -4 3 4 12 2 19 -4 18 -15 33 -3 27 20 -4 14 -13 19 -34 19 -16 -1 -37 6 -47 15 -10 10 -22 17 -27 17 -5 0 -17 7 -27 17 -17 15 -18 15 -18 -3z"
       id="path838" />
    <path
       d="M958 2549 c-16 -15 -28 -37 -28 -48 0 -12 -4 -21 -9 -21 -5 0 -11 -10 -13 -22 -2 -15 -11 -24 -25 -26 -13 -2 -23 -8 -23 -13 0 -5 -18 -29 -40 -51 -22 -23 -40 -48 -40 -55 0 -7 -4 -13 -8 -13 -13 0 -8 -36 7 -54 10 -12 10 -19 -3 -38 -20 -28 -20 -42 -2 -35 8 3 17 1 20 -6 2 -7 5 -4 5 6 1 10 5 16 10 13 5 -3 11 6 14 19 2 16 -1 29 -10 33 -15 9 -8 42 9 42 5 0 7 13 3 30 -5 22 -3 32 9 36 9 3 16 14 17 23 0 10 2 11 6 4 3 -10 10 -10 24 -2 11 5 17 15 13 21 -4 7 -10 6 -16 -3 -8 -11 -9 -11 -6 -1 2 8 7 12 10 10 4 -2 25 16 47 40 45 47 51 50 51 22 0 -11 -4 -20 -8 -20 -9 0 -42 -69 -43 -91 0 -9 -4 -6 -10 6 -7 15 -8 12 -5 -17 3 -22 -1 -44 -9 -55 -13 -16 -14 -15 -11 17 2 19 1 26 -1 15 -3 -11 -9 -23 -15 -26 -12 -8 -18 -99 -7 -99 5 0 9 -8 9 -18 0 -15 -7 -18 -35 -17 -43 1 -68 -11 -43 -20 14 -6 16 -15 11 -51 -5 -40 -4 -44 16 -44 20 0 25 -14 24 -67 0 -6 6 -9 13 -6 10 3 14 -3 14 -20 0 -14 5 -27 10 -29 6 -2 11 -20 12 -41 1 -21 6 -37 13 -37 7 0 12 -10 11 -23 -1 -36 26 -110 36 -95 5 9 8 6 8 -10 0 -24 21 -52 38 -52 5 0 23 -13 40 -30 33 -31 149 -90 220 -111 44 -13 96 -3 130 23 24 20 11 27 -24 12 -20 -8 -42 -13 -49 -10 -7 2 -17 0 -22 -5 -7 -7 -15 -6 -24 4 -8 7 -19 12 -25 10 -7 -2 -19 3 -27 12 -9 8 -22 15 -30 15 -50 0 -167 81 -167 116 0 14 -3 15 -8 6 -6 -9 -14 1 -26 30 -16 38 -19 41 -26 23 -8 -19 -9 -19 -9 3 -1 12 -5 22 -11 22 -5 0 -9 15 -9 33 0 17 -6 57 -14 87 -8 30 -16 62 -18 70 -2 8 -8 18 -13 22 -5 3 -2 13 7 22 15 15 15 18 -4 37 -11 11 -18 27 -15 34 3 9 -4 15 -21 17 -15 2 -28 9 -31 16 -3 9 3 13 14 12 49 -6 51 -3 47 59 -3 52 -1 61 16 71 12 6 23 25 27 48 4 20 17 55 29 77 13 22 26 57 30 79 5 33 4 38 -9 32 -9 -3 -23 -9 -31 -12 -25 -10 -17 23 11 49 15 14 25 29 23 35 -2 5 -16 -3 -31 -19z"
       id="path840" />
    <path
       d="M1100 2535 c0 -3 4 -13 9 -23 5 -9 27 -55 49 -102 22 -47 49 -96 61 -110 l21 -25 -9 25 c-8 22 -26 59 -81 160 -8 14 -15 30 -16 35 0 6 -2 15 -2 21 -2 11 -32 29 -32 19z"
       id="path844" />
    <path
       d="M1038 2513 c-11 -14 -10 -16 14 -10 17 5 28 3 31 -6 3 -6 6 -3 6 8 1 26 -32 30 -51 8z"
       id="path846" />
    <path
       d="M1590 2508 c0 -18 74 -81 78 -68 5 13 -33 57 -60 71 -13 7 -18 6 -18 -3z"
       id="path848" />
    <path
       id="path852"
       style="stroke-width:0.133333"
       transform="matrix(7.5,0,0,-7.5,0,3000)"
       d="m 59.404297,80.775391 c -0.179431,0.04233 -0.359959,0.07996 -0.541016,0.117187 0.08389,0.316153 0.194151,0.448427 0.335938,0.306641 0.06396,-0.06396 0.134024,-0.223832 0.205078,-0.423828 z" />
    <path
       d="M1074 2466 c-3 -8 -13 -13 -22 -11 -9 1 -11 0 -4 -2 9 -3 12 -14 9 -29 -2 -13 -1 -24 2 -24 7 0 41 58 41 71 0 14 -20 11 -26 -5z"
       id="path854" />
    <path
       d="M1107 2422 c7 -4 19 -24 27 -44 9 -20 20 -39 26 -43 14 -9 13 2 -4 33 -8 15 -17 35 -20 45 -3 9 -13 17 -23 17 -12 0 -14 -3 -6 -8z"
       id="path856" />
    <path
       d="M1520 2420 c0 -5 9 -19 20 -30 11 -11 20 -27 20 -35 0 -8 4 -15 10 -15 5 0 16 -15 25 -34 19 -40 72 -96 92 -96 19 0 28 29 14 43 -8 8 -11 5 -11 -13 l0 -25 -25 29 c-32 37 -32 48 0 40 36 -9 31 1 -10 20 -19 9 -35 23 -35 31 0 8 -5 15 -10 15 -6 0 -15 12 -20 26 -6 14 -14 23 -18 20 -5 -3 -19 4 -30 15 -12 11 -22 15 -22 9z"
       id="path858" />
    <path
       d="M1010 2396 c0 -7 -3 -29 -6 -47 -4 -19 -3 -31 1 -27 11 11 24 88 14 88 -5 0 -9 -6 -9 -14z"
       id="path860" />
    <path
       d="M1311 2397 c34 -18 129 -31 129 -17 0 5 -10 10 -22 11 -13 0 -32 2 -43 4 -92 17 -92 17 -64 2z"
       id="path862" />
    <path
       d="M1497 2390 c3 -11 0 -20 -6 -20 -6 0 -11 7 -11 15 0 8 -4 15 -10 15 -13 0 32 -87 48 -94 14 -6 12 29 -4 82 -8 27 -24 30 -17 2z"
       id="path864" />
    <path
       d="M1657 2378 c10 -18 21 -35 24 -38 3 -3 9 -14 13 -25 7 -19 8 -19 18 -1 8 15 5 23 -16 41 -14 12 -26 30 -26 39 0 9 -7 16 -16 16 -13 0 -13 -4 3 -32z"
       id="path866" />
    <path
       id="path870"
       style="stroke-width:0.133333"
       transform="matrix(7.5,0,0,-7.5,0,3000)"
       d="m 81.304688,97.865234 c -0.0333,0.0035 -0.04237,0.0022 -0.07617,0.0059 -2.43e-4,0.400381 -0.0017,0.800788 -0.002,1.201172 0.02685,-0.398457 0.04797,-0.826632 0.07813,-1.207032 z" />
    <path
       d="M1050 2180 c0 -5 -11 -12 -25 -16 -14 -3 -25 -13 -25 -21 0 -8 -4 -11 -10 -8 -5 3 -10 -3 -10 -14 0 -28 50 -30 57 -2 4 16 10 17 46 10 23 -4 55 -12 70 -18 35 -14 77 -14 77 -1 0 15 -33 28 -89 36 -33 4 -48 10 -40 15 14 8 13 8 -36 24 -8 2 -15 0 -15 -5z"
       id="path872" />
    <path
       id="path874"
       style="stroke-width:0.133333"
       transform="matrix(7.5,0,0,-7.5,0,3000)"
       d="m 221.10742,108.93945 c -0.3612,0.0107 -0.69127,0.0931 -0.97461,0.25977 -1.2,0.8 -1.06536,1.46693 0.66797,2.93359 1.2,1.06667 2.53216,1.73347 2.79883,1.4668 0.13333,-0.13333 0.26615,-5.2e-4 0.13281,0.13281 -0.26666,0.26667 0.5349,1.60026 1.60156,2.9336 1.2,1.6 1.3323,2.13346 0.26563,1.46679 -1.06667,-0.53333 -1.46537,-0.3987 -1.33203,0.66797 0.93333,3.73333 -2.5349,2.13229 -3.60156,-1.73437 -1.46667,-4.93334 -6,-6.93269 -6,-2.66602 0,1.46667 0.80052,3.33281 1.86718,4.13281 2.26667,1.86667 1.99961,14.39987 -0.40039,20.53321 -0.8,2.13333 -1.33255,7.73268 -1.19922,12.66601 0.13334,8.53334 0.13308,8.66693 1.06641,2.9336 0.53333,-3.33334 1.06641,-5.19844 1.06641,-4.39844 0.13333,0.93333 0.80013,1.73242 1.46679,1.73242 0.66667,0 1.46771,-3.06693 1.73438,-6.93359 0.53333,-4.4 1.59974,-7.46654 3.0664,-8.53321 2.13334,-1.6 2.13347,-1.73346 -0.5332,-3.46679 -3.2,-1.86667 -3.86693,-4.00026 -0.93359,-2.9336 2.26666,0.8 4.13281,-1.59883 2.13281,-2.79883 -1.73333,-1.06666 -1.73385,-4.66796 0.13281,-4.66796 2.8,0 5.33321,-3.86693 4.53321,-6.9336 -0.93334,-3.38333 -5.03021,-6.86771 -7.5586,-6.79297 z" />
    <path
       d="M1427 2150 c-26 -9 -48 -20 -48 -23 1 -4 1 -12 1 -18 0 -7 11 -9 33 -5 69 15 107 18 107 9 0 -15 52 -35 62 -25 12 12 -50 72 -67 66 -7 -3 -16 -1 -20 5 -7 13 -7 13 -68 -9z"
       id="path876" />
    <path
       d="M1088 2074 c-4 -3 -12 -7 -20 -8 -25 -5 -48 -18 -48 -27 0 -14 38 -11 43 4 3 8 12 4 26 -13 22 -24 23 -24 53 -7 16 9 34 15 39 11 13 -8 11 -52 -3 -57 -10 -4 -10 -8 2 -16 25 -17 41 18 27 61 -14 45 -46 59 -91 42 -14 -5 -17 -4 -12 4 7 12 -6 17 -16 6z"
       id="path880" />
    <path
       d="M1401 2064 c-31 -13 -38 -28 -23 -52 6 -9 12 -5 21 15 13 28 13 28 22 6 6 -17 16 -23 37 -23 26 0 29 3 24 26 l-5 25 37 -20 c39 -23 47 -12 16 21 -17 18 -23 20 -45 10 -14 -6 -25 -8 -25 -3 0 11 -25 9 -59 -5z"
       id="path882" />
    <path
       d="M1047 2013 c-13 -12 -7 -25 9 -19 8 3 12 2 9 -4 -3 -6 1 -13 10 -16 27 -11 30 5 5 26 -26 23 -25 22 -33 13z"
       id="path888" />
    <path
       id="path890"
       style="stroke-width:0.133333"
       transform="matrix(7.5,0,0,-7.5,0,3000)"
       d="m 284.42578,135.61133 c -0.0354,0 -0.0683,-0.002 -0.11523,0.008 -0.0266,0.34784 -0.0398,0.64094 -0.0547,0.92383 0.16776,-0.24818 0.29294,-0.48653 0.33398,-0.66406 -0.02,-0.0489 -0.028,-0.0964 -0.0566,-0.14649 -0.0271,-0.0451 -0.0709,-0.0808 -0.10742,-0.12109 z" />
    <path
       d="M1120 1963 c0 -26 9 -33 32 -24 15 5 15 8 2 25 -10 14 -14 16 -14 5 0 -12 -2 -12 -10 1 -8 12 -10 11 -10 -7z"
       id="path892" />
    <path
       d="M1375 1969 c-9 -14 0 -22 45 -35 32 -9 37 -9 33 2 -3 8 -13 14 -23 14 -10 0 -25 7 -34 15 -10 10 -17 12 -21 4z"
       id="path894" />
    <path
       id="path896"
       style="stroke-width:0.133333"
       transform="matrix(7.5,0,0,-7.5,0,3000)"
       d="m 236.38867,144.0293 c 0.0337,0.0671 0.0637,0.13624 0.0977,0.20312 0.0327,0.0644 0.1031,0.13486 0.17578,0.20703 0.13389,0.0132 0.27203,0.0284 0.4082,0.043 -0.16897,-0.2326 -0.40484,-0.39299 -0.68164,-0.45312 z" />
    <path
       id="path904"
       style="stroke-width:0.133333"
       transform="matrix(7.5,0,0,-7.5,0,3000)"
       d="m 348.12891,155.14844 c -0.054,0.006 -0.10604,0.0352 -0.15625,0.0859 0.27425,0.12244 0.51267,0.25036 0.70312,0.39257 -0.17202,-0.28078 -0.36423,-0.49944 -0.54687,-0.47851 z m 0.96093,1.41601 c -0.0206,0.12496 -0.0732,0.26708 -0.14062,0.41797 0.0719,-0.004 0.13746,-0.006 0.21094,-0.01 -0.006,-0.12129 -0.024,-0.24575 -0.0566,-0.3711 -0.003,-0.0103 -0.0107,-0.0264 -0.0137,-0.0371 z" />
    <path
       d="M1380 1875 c-2 -5 -3 -18 -4 -27 -1 -10 -4 -17 -8 -15 -4 1 -13 -6 -20 -16 -12 -16 -15 -16 -58 5 -25 12 -48 26 -51 30 -3 5 -6 -4 -6 -20 0 -28 5 -30 56 -34 8 -1 16 -10 19 -20 5 -22 15 -23 32 -3 7 8 18 15 25 15 26 0 38 29 27 63 -5 17 -11 28 -12 22z"
       id="path906" />
    <path
       d="M1633 1816 c1 -19 5 -32 10 -29 11 6 9 63 -3 63 -5 0 -9 -15 -7 -34z"
       id="path908" />
    <path
       id="path910"
       style="stroke-width:0.133333"
       transform="matrix(7.5,0,0,-7.5,0,3000)"
       d="m 334.99609,169.48438 c 0.006,0.0641 0.0116,0.12785 0.0176,0.18945 0.21494,-0.0369 0.31699,0.0409 -0.0176,-0.18945 z" />
    <path
       d="M1569 1817 c0 -1 -2 -22 -4 -46 -2 -24 -12 -52 -23 -65 -19 -20 -39 -66 -29 -66 3 0 14 15 26 33 11 17 21 25 21 17 1 -8 8 1 16 20 33 74 33 76 13 93 -10 9 -19 16 -20 14z"
       id="path912" />
    <path
       d="M1179 1736 c7 -8 10 -19 7 -24 -3 -6 3 -12 14 -15 13 -3 20 0 20 10 0 8 -4 11 -10 8 -5 -3 -10 0 -10 8 0 8 -7 18 -16 21 -14 5 -15 4 -5 -8z"
       id="path924" />
    <path
       d="M1374 1710 c1 -29 4 -36 11 -27 6 7 18 16 28 20 9 3 17 11 17 16 0 6 -6 8 -14 5 -7 -3 -20 2 -29 10 -13 14 -15 11 -13 -24z"
       id="path926" />
    <path
       id="path930"
       style="stroke-width:0.133333"
       transform="matrix(7.5,0,0,-7.5,0,3000)"
       d="m 254.42383,185.53516 c -0.0455,0.24661 -0.0547,0.31263 -0.0996,0.55664 0.0224,-0.0141 0.0463,-0.0267 0.0703,-0.0391 0.007,-0.01 0.0126,-0.0215 0.0195,-0.0312 5.6e-4,-0.12207 0.009,-0.349 0.01,-0.48632 z" />
    <path
       d="M1488 1658 c-2 -13 -13 -27 -25 -33 -25 -11 -44 -45 -39 -72 2 -10 7 -40 10 -66 4 -27 10 -46 13 -43 9 8 9 95 1 89 -14 -8 -8 14 7 27 8 7 15 21 15 31 0 22 16 34 23 17 3 -7 6 6 6 30 1 45 -6 57 -11 20z"
       id="path936" />
    <path
       d="M1315 1660 c-4 -6 10 -10 36 -10 48 0 49 6 2 15 -18 3 -35 1 -38 -5z"
       id="path938" />
    <path
       id="path944"
       style="stroke-width:0.133333"
       transform="matrix(7.5,0,0,-7.5,0,3000)"
       d="m 329.57031,229.94531 c -0.0582,0.14653 -0.1268,0.2838 -0.18554,0.42969 0.14977,0.0669 0.29641,0.14043 0.43945,0.21875 -0.0926,-0.21894 -0.17636,-0.42983 -0.25391,-0.64844 z" />
    <path
       id="path946"
       style="stroke-width:0.133333"
       transform="matrix(7.5,0,0,-7.5,0,3000)"
       d="m 71.193359,193.82227 c -0.05259,0.0385 -0.107204,0.0761 -0.15625,0.11718 -0.09784,0.082 -0.02674,0.489 0.04102,0.38086 0.07394,-0.11801 0.12634,-0.24736 0.185547,-0.37304 -0.02196,-0.0416 -0.0465,-0.0832 -0.07031,-0.125 z" />
    <path
       d="M1030 1571 c0 -5 -7 -11 -16 -13 -11 -2 -16 -19 -19 -65 -3 -72 7 -75 25 -6 7 27 17 52 21 58 12 13 11 35 -1 35 -5 0 -10 -4 -10 -9z"
       id="path952" />
    <path
       id="path954"
       style="stroke-width:0.133333"
       transform="matrix(7.5,0,0,-7.5,0,3000)"
       d="m 130.40039,190.80078 c -0.26667,0.13333 -1.59974,0.39883 -3.06641,0.79883 -1.46666,0.4 -3.20052,1.20052 -3.86718,1.86719 -1.86667,1.73333 -7.4668,1.46627 -7.4668,-0.40039 0,-1.2 -0.39961,-1.2 -1.59961,0 -0.93333,0.93333 -2.93463,1.59961 -4.66797,1.59961 -1.73333,0 -3.0664,0.80156 -3.0664,1.60156 0,1.2 -0.39974,1.33229 -1.06641,0.26562 -0.53333,-0.8 -2.13294,-1.20026 -3.59961,-0.93359 -1.46667,0.4 -4.800651,0.79974 -7.333984,1.06641 C 88.799349,197.19935 84,198.66719 84,199.86719 c 0,1.06666 3.466016,0.93242 6.666016,-0.26758 1.066666,-0.4 2.933333,-0.79883 4,-0.79883 1.066666,0 3.866658,-0.40026 6.000004,-0.93359 3.6,-0.93334 3.86809,-0.80078 2.13476,1.19922 -0.93333,1.33333 -2.934244,2.26757 -4.267577,2.26757 -1.466667,0 -2.533203,0.53256 -2.533203,1.19922 0,1.33334 -4.533333,3.20065 -8,3.33399 -2.666667,0.13333 -5.333464,-2.53347 -5.466797,-5.4668 0,-2.13333 -0.132552,-2.13437 -1.199219,0.26563 -0.666666,1.46666 -1.201169,1.86744 -1.201172,0.80078 -0.133331,-1.33334 -1.333593,-1.60026 -4.933593,-0.9336 -5.066667,1.06667 -10.39961,5.33438 -9.59961,7.73438 0.4,0.93333 1.733464,0.39935 3.466797,-1.33399 1.6,-1.6 2.933594,-2.53281 2.933594,-2.13281 0,0.53333 0.933333,0.13255 2,-0.80078 1.2,-0.93333 2.533073,-1.19935 3.066406,-0.66602 0.533334,0.53334 0.133985,1.33295 -0.666015,1.59961 -0.933334,0.4 -1.734375,1.20052 -1.734375,1.86719 0,0.8 0.667317,0.9332 1.333984,0.5332 0.8,-0.4 1.333984,0.13256 1.333984,1.19922 0,2.66667 2.132552,2.79948 3.199219,0.13282 0.933333,-2.66667 3.466797,-2.53334 3.466797,0 0,1.2 0.799089,2.00052 1.732422,1.86718 3.333333,-0.4 4.933594,0.13334 4.933594,2 0,1.06667 0.801041,2.26654 1.734375,2.53321 1.2,0.53333 1.065755,0.80078 -0.267579,0.80078 -1.466666,0.13333 -1.466666,0.53372 0,2.40039 1.733334,2 1.600261,1.99987 -1.066406,0.5332 C 89.333073,218.00078 88,217.73372 88,218.40039 c 0,0.66667 -1.60013,1.19922 -3.466797,1.19922 -2,0 -3.999349,0.93385 -4.666015,1.86719 -0.933335,1.6 -1.201172,1.46718 -1.201172,-0.13282 0,-1.6 -0.265886,-1.60091 -1.199219,-0.26757 -0.533333,0.93333 -2.800781,1.86614 -4.800781,2.13281 -4,0.4 -7.332943,3.86771 -5.59961,5.73437 0.666667,0.53334 1.599479,0.26732 2.132813,-0.66601 1.333333,-2.26667 4.001172,6.53216 3.201172,10.79883 -0.4,1.86666 -0.0012,3.73281 0.798828,4.13281 0.8,0.53333 1.466797,2.26719 1.466797,3.86719 0,1.73333 1.201302,3.86692 2.667968,4.93359 C 78.800651,253.06667 80,255.33307 80,257.06641 c 0,1.73333 0.799089,4.00026 1.732422,4.93359 3.866667,4.4 4.933594,5.99922 4.933594,7.19922 0,0.8 1.201302,3.4681 2.667968,6.13476 1.466667,2.66667 2.666016,6.13334 2.666016,8 0,4.13334 1.467186,4.9336 5.867188,2.9336 3.600002,-1.6 4.932942,-4.53451 1.599609,-3.20117 C 98.40013,283.46641 96.8,282.93385 96,281.86719 c -1.333333,-1.46667 -1.333854,-1.86667 0.132812,-2 2.133336,-0.26667 39.599608,0.26653 49.599608,0.5332 3.46667,0.13333 6.53412,-0.39974 6.80078,-1.06641 0.4,-0.8 0.66602,-0.2664 0.66602,0.9336 0.13333,2.8 0.66758,2.93307 4.26758,1.0664 1.73333,-1.06666 2.5332,-0.93333 2.5332,0 0,0.93334 0.79987,1.06667 2.5332,0 3.6,-1.86666 4.13282,-1.73463 4.13282,1.33204 0,1.73333 -0.66667,2.40052 -2,1.86718 -1.06667,-0.53333 -2,-0.13398 -2,0.66602 0,0.8 1.2013,1.4668 2.66796,1.4668 2.13334,0 2.66602,-0.93178 2.66602,-4.39844 0,-3.2 0.40065,-3.73425 1.33398,-2.26758 1.2,1.73333 1.33204,1.73333 1.33204,0 0,-1.6 0.26783,-1.59948 1.20117,-0.13281 0.8,1.2 1.46666,1.33229 2,0.26562 0.66666,-1.06666 1.59922,-0.7987 3.19922,0.66797 1.33333,1.46667 2.26601,1.73268 2.66601,0.66602 0.8,-2.53334 2.93503,-1.59987 3.06836,1.46679 0.13333,2.26667 0.2655,2.53269 0.79883,0.66602 0.26667,-1.2 1.46654,-2.26563 2.5332,-2.26563 1.2,0 1.73451,-0.6677 1.20117,-1.73437 -0.53333,-0.8 -2.6e-4,-0.53203 1.06641,0.66797 1.06667,1.33333 2.53203,2.39844 3.33203,2.39844 0.8,0 1.73334,-1.06511 2,-2.39844 0.4,-1.46667 0.66745,-1.20026 0.80078,1.0664 0.13334,2.66667 0.80013,3.33204 3.4668,3.33204 2.93333,0 3.33268,-0.53308 2.66602,-3.06641 -0.8,-3.06667 -0.26667,-3.33242 4,-1.73242 1.46666,0.66666 3.33372,0.5319 4.40039,-0.13477 1.06666,-0.93333 1.59961,-0.9319 1.59961,0.13477 0,0.8 0.39974,1.33203 1.0664,1.33203 4.53334,-0.8 12.40143,0.53424 14.13477,2.26758 1.6,1.6 2.13281,1.59896 2.13281,0.26562 0,-1.33333 0.40065,-1.19909 1.33398,0.26758 1.06667,1.6 1.33204,1.46589 1.33204,-0.80078 0,-1.46667 0.66822,-3.33229 1.60156,-4.26563 1.2,-1.2 1.06536,-1.59961 -0.66797,-1.59961 -1.2,0 -2.26563,0.53256 -2.26563,1.19922 0,0.53334 -3.20026,0.53334 -6.93359,0 -3.86667,-0.66666 -9.46706,-1.6 -12.40039,-2 -8.26667,-1.33333 -75.33398,-1.33333 -75.33398,0 0,0.66667 -0.79961,0.53386 -1.59961,-0.13281 -0.93334,-0.66667 -3.73334,-1.19974 -6,-1.06641 -2.53334,0.13334 -4.40039,-0.40117 -4.40039,-1.20117 0,-1.06666 -0.26641,-1.06666 -1.06641,0 -1.06667,1.6 -26.132424,1.8681 -27.732422,0.13477 -0.533334,-0.53334 -0.266797,-0.9336 0.533203,-0.9336 1.066666,0 1.198958,-0.93346 0.265625,-3.46679 -0.8,-1.86667 -1.066016,-4.0013 -0.666016,-4.66797 0.533333,-0.66667 -0.132552,-0.79844 -1.199219,-0.39844 -1.466666,0.53333 -2.134765,-1.3e-4 -2.134765,-1.4668 0,-1.2 -0.532032,-1.73398 -1.332032,-1.33398 C 88.667318,262.4 88,261.59948 88,260.13281 c 0,-1.46666 -0.533984,-3.06679 -1.333984,-3.46679 -0.666667,-0.4 -1.998829,-1.99961 -2.798828,-3.59961 -1.466668,-2.53334 -1.200782,-2.66719 3.199218,-1.86719 3.866667,0.66667 4.800651,0.39987 5.333985,-1.4668 0.533333,-2.13333 0.665494,-1.99909 0.798828,0.26758 0.133333,2.26667 0.40013,2.39935 1.466797,0.66602 C 95.466016,249.33268 96,249.20091 96,250.26758 96,251.20091 97.199349,252 98.666016,252 c 1.466664,0 2.667964,-0.79909 2.667964,-1.73242 0,-1.2 0.39922,-1.06771 1.19922,0.26562 0.93334,1.46667 1.20052,1.46667 1.86719,0 0.53333,-1.6 0.93281,-1.46718 2.13281,0.13282 1.33334,1.73333 1.4668,1.73333 1.4668,0 0,-1.73334 0.13398,-1.73334 1.33398,0 1.06667,1.6 1.33204,1.46692 1.33204,-1.06641 0,-2.66667 -0.66563,-2.93307 -6.26563,-3.06641 -3.6,0 -8.933333,-0.26705 -11.999999,-0.40039 -4,-0.26666 -5.734375,0.13347 -5.734375,1.4668 0,5.46667 -8.666146,-1.99883 -10.132813,-8.79883 -0.4,-1.86667 -1.333333,-4.53333 -2,-6 -2.133333,-3.73333 1.732552,-6.93398 9.199219,-7.33398 0.8,-0.13334 1.601562,-1.19987 1.601562,-2.53321 0,-1.86666 0.265365,-2.00091 1.332032,-0.26757 0.666666,1.06666 1.601432,1.46692 2.134765,0.93359 0.533334,-0.53333 1.732162,0.26771 2.798828,1.73437 2.8,4 5.733594,3.46641 4.933594,-0.93359 -0.4,-2 -0.933984,-3.99987 -1.333984,-4.5332 -0.266667,-0.53334 0.135026,-1.20013 1.068359,-1.4668 1.2,-0.4 1.065365,-1.60091 -0.667969,-4.26758 C 93.066276,210.39948 93.599349,208 96.666016,208 c 0.933333,0 1.999869,-0.93333 2.533203,-2 0.4,-1.06667 1.466541,-2 2.533201,-2 0.93334,0 4.00078,-1.19935 6.80078,-2.66602 3.86667,-1.86666 5.73438,-2.26783 7.73438,-1.20117 2.66666,1.46667 7.46575,0.53334 9.73242,-2 1.33333,-1.6 4.93372,-7.5987 4.40039,-7.33203 z" />
    <path
       id="path956"
       style="stroke-width:0.133333"
       transform="matrix(7.5,0,0,-7.5,0,3000)"
       d="m 198.80078,194.66602 c -0.4,0 -0.93359,3.4677 -0.93359,7.73437 -0.13334,4.13333 -0.79961,9.06693 -1.59961,10.93359 -0.66667,1.86667 -1.06797,3.7323 -0.66797,4.26563 0.26667,0.66667 -0.53385,1.06641 -1.86719,1.06641 -1.86666,0 -1.99987,0.26783 -0.5332,1.20117 1.2,0.8 1.33424,1.46666 0.26758,2 -0.8,0.53333 -2.13308,0.53333 -3.06641,0 -1.06667,-0.66667 -1.2013,-0.26745 -0.66797,1.19922 0.66667,1.6 0.13477,2.26757 -1.86523,2.26757 -2.66667,0 -9.86654,6.53243 -8.53321,7.73243 0.4,0.4 2.39935,-0.93308 4.66602,-3.06641 l 3.86719,-3.73242 -1.06641,3.86523 c -0.53333,2.13334 -2.26719,4.40117 -3.86719,5.20117 -1.6,0.66667 -2.93359,1.7323 -2.93359,2.26563 0,0.66667 -0.53398,1.06641 -1.33398,1.06641 -0.66667,0 -3.06589,1.86666 -5.19922,4 -2,2.26666 -5.73334,4.66679 -8,5.46679 -4.53334,1.6 -11.46758,7.60078 -10.26758,8.80078 0.4,0.4 3.0681,-0.53281 6.13476,-2.13281 2.93334,-1.46667 5.33204,-2.53476 5.33204,-2.13476 0,0.93333 5.19974,-3.46628 9.0664,-7.59961 1.86667,-2 3.86706,-3.3336 4.40039,-2.9336 0.66667,0.4 1.20117,0.001 1.20117,-0.79883 0,-0.8 0.66537,-1.06796 1.33204,-0.66796 0.8,0.4 1.33398,2.6e-4 1.33398,-1.06641 0,-1.06667 1.59909,-2.40026 3.73242,-2.93359 2,-0.53334 2.8,-1.33295 2,-1.59961 -0.93333,-0.4 -1.73242,-1.60026 -1.73242,-2.9336 0,-2.8 5.46628,-7.86588 7.59961,-7.19922 2,0.66667 0.66706,4.40039 -1.59961,4.40039 -0.93333,0 -1.60013,1.46537 -1.4668,3.33204 0.13334,2.53333 0.93256,3.33398 3.19922,3.33398 1.6,0 2.9336,0.53307 2.9336,1.06641 0,0.66666 3.86796,1.33346 8.66796,1.46679 8.93334,0.26667 10.53217,-0.79935 6.79883,-4.66601 -2.66666,-2.53334 -3.46679,-2.40026 -3.46679,1.0664 v 2.79883 l -2.53321,-2.93164 c -1.46666,-1.73333 -2.93203,-2.40156 -3.33203,-1.60156 -1.06667,1.73333 -8.80078,1.20013 -8.80078,-0.5332 0.13333,-0.8 0.93333,-2.53191 2,-3.86524 1.06667,-1.46667 2,-4.66836 2,-7.06836 0,-4.66666 3.06654,-6.26562 4.5332,-2.26562 0.53334,1.33333 1.73347,1.73255 3.4668,1.19922 1.46667,-0.4 2.66602,-0.26628 2.66602,0.40039 0,2.13333 8.66757,3.99948 28.26757,6.13281 2.66667,0.26667 5.46563,0.93346 6.26563,1.4668 0.8,0.4 1.4668,-0.13256 1.4668,-1.19922 0,-1.2 1.2013,-2.13282 2.66796,-2.13282 1.46667,0 2.66602,0.6668 2.66602,1.4668 0,0.66667 -0.53255,1.06602 -1.19922,0.66602 -1.33333,-0.93334 -2.80078,2.13385 -2.80078,5.86718 0,1.33334 -0.6668,2.66693 -1.4668,2.9336 -0.66666,0.26666 -1.33398,4.2664 -1.33398,9.0664 -0.13333,7.33334 -0.39909,8.26563 -1.73242,6.26563 -1.86667,-2.4 -4.80078,-3.06589 -4.80078,-1.19922 0,1.73333 -4.39896,1.33346 -6.26563,-0.5332 -0.93333,-0.93334 -1.73437,-2.66719 -1.73437,-3.86719 0,-1.86667 -0.53269,-1.73255 -2.66602,0.80078 L 225.4668,250 l -0.26758,-3.33398 c -0.13333,-2.26667 -0.39883,-2.66641 -0.79883,-1.06641 -0.26667,1.33333 -1.46654,2.40039 -2.5332,2.40039 -2.8,0 -3.86628,-0.53242 -3.59961,-1.73242 0.66666,-1.86667 -1.33438,-0.93334 -3.73438,2 L 212,251.06641 v -3.4668 c 0,-2 -0.40026,-3.59909 -0.93359,-3.73242 -0.66667,0 -3.59935,-0.4013 -6.66602,-0.66797 -3.6,-0.4 -5.73437,-0.13203 -5.73437,0.66797 0,1.33333 1.86705,1.99961 4.40039,1.59961 0.53333,0 0.93359,0.39922 0.93359,1.19922 0,0.66666 0.93333,0.9332 2,0.5332 1.2,-0.53333 2,6.5e-4 2,1.33398 0,2.66667 -6.13268,2.93425 -8.66602,0.26758 -1.86666,-1.86667 -13.60039,-2.13424 -16.40039,-0.26758 -1.06666,0.66667 -1.59961,-5.2e-4 -1.59961,-1.86718 0,-2.8 -2.6e-4,-2.79961 -2.93359,0.40039 -1.73333,1.73333 -5.46706,4.53424 -8.40039,6.26757 -2.93333,1.86667 -6.53385,4.26628 -7.86719,5.59961 -1.46666,1.33334 -3.86536,2.40039 -5.33203,2.40039 -1.6,0 -3.73411,0.6668 -4.80078,1.4668 -1.6,1.06667 -1.06667,1.19831 2,0.93164 2.26667,-0.13333 5.46589,-1.33268 7.19922,-2.66601 1.73333,-1.33334 3.86797,-2.40039 4.66797,-2.40039 0.8,0 3.73372,-1.86667 6.40039,-4 4.53333,-3.73334 5.33268,-3.99935 10.66601,-2.66602 8.66667,2 44.6668,1.73294 45.4668,-0.40039 0.53333,-1.06667 0.79883,-0.93294 0.79883,0.40039 0.13333,1.46667 2.13411,2.13424 8.80078,2.26758 l 8.66602,0.39844 v -4.39844 c 0.13333,-5.33334 2.93411,-16.00039 4.80078,-18.40039 0.8,-1.06667 1.86562,-2.80052 2.26562,-3.86719 0.53334,-1.6 0.80078,-1.46628 0.80078,0.40039 0.13334,2.13333 0.53347,2.13294 5.4668,-0.40039 2.93333,-1.46667 5.33398,-3.20052 5.33398,-3.86719 0,-0.66666 -1.33359,-3.73216 -2.93359,-6.79883 -3.33333,-6 -9.86758,-10.13463 -14.26758,-8.66796 -3.73333,1.06666 -3.6,3.86692 0,2.93359 3.46667,-0.93333 9.20117,1.46719 9.20117,3.86719 0,2.13333 -6.93385,7.19922 -9.86718,7.19922 -2.26667,0 -4.26745,-5.6 -2.80078,-8 0.53333,-0.8 -0.26576,-2.66667 -1.73243,-4 -2.26666,-2.13334 -2.80013,-2.13269 -3.46679,-0.66602 -0.4,1.06667 -0.13347,2.26602 0.5332,2.66602 0.53333,0.4 0.80039,2.53411 0.40039,4.80078 -0.4,2.66666 -0.1345,3.86731 0.79883,3.33398 0.66667,-0.53333 2.00078,0.26576 2.80078,1.73242 1.33333,2.66667 -0.40052,5.46693 -1.86719,2.9336 -0.4,-0.53334 -3.19948,-1.46667 -6.13281,-2 -5.73333,-0.93334 -6.79974,-2.53269 -3.06641,-4.66602 1.33334,-0.66667 1.86732,-1.73372 1.33399,-2.40039 -0.66667,-0.53333 -2.26823,0.26667 -3.60156,2 -2.13334,2.53333 -3.33256,2.93281 -7.19922,2.13281 -4.26667,-0.66666 -4.53399,-1.06679 -3.33399,-3.46679 1.2,-2.26667 1.73464,-2.40026 2.66797,-0.9336 0.93333,1.46667 1.19922,1.46628 1.19922,-0.40039 0,-1.2 0.79909,-2.39883 1.73242,-2.79883 0.8,-0.26666 1.2013,-1.06627 0.66797,-1.59961 -0.53333,-0.53333 -2.53424,-7.8e-4 -4.26758,1.19922 -1.86666,1.06667 -6.4,2.5336 -10,2.9336 -5.73333,0.66666 -6.79883,0.39935 -6.79883,-1.33399 C 205.33398,212.93281 204.8,212 204,212 c -0.66667,0 -1.33398,-1.20078 -1.33398,-2.80078 0,-3.86667 -2.79857,-14.5332 -3.86524,-14.5332 z M 259.86719,220 c 0.66666,0 1.06692,0.93333 0.93359,2 -0.53333,3.46667 -2.93489,5.06628 -5.60156,3.59961 -2.13333,-1.2 -2.13346,-1.33281 0.5332,-2.13281 1.6,-0.53334 2.9336,-1.60091 2.9336,-2.26758 0,-0.66667 0.5345,-1.19922 1.20117,-1.19922 z" />
    <path
       d="M1560 1516 c0 -9 3 -16 8 -16 4 0 16 -7 27 -16 16 -12 17 -17 7 -23 -8 -5 -12 -21 -10 -36 3 -26 4 -27 19 -13 24 24 13 74 -22 99 -24 17 -29 18 -29 5z"
       id="path960" />
    <path
       id="path962"
       style="stroke-width:0.133333"
       transform="matrix(7.5,0,0,-7.5,0,3000)"
       d="M 220.26758,200.26758 C 220.03424,200.23424 220,200.73242 220,201.73242 c 0,1.2 -0.79961,2.26758 -1.59961,2.26758 -1.2,0 -1.20052,0.39922 0.13281,1.19922 1.06667,0.66667 2.66771,0.9332 3.73438,0.5332 0.93333,-0.4 1.73242,2.6e-4 1.73242,0.9336 0,0.93333 1.06706,1.33307 2.40039,1.0664 1.33333,-0.4 3.46602,2.6e-4 4.66602,0.9336 2.13333,1.46666 2.00026,1.86718 -1.06641,3.86718 -1.86667,1.2 -3.33398,3.46693 -3.33398,4.9336 0,2.26666 0.79987,1.86731 4.5332,-2.66602 3.73333,-4.4 4.66784,-5.06784 5.20117,-3.20117 0.53333,2 0.6655,1.86628 0.79883,-0.40039 0.13333,-3.46667 -2.26667,-5.86524 -6,-5.86524 -1.73333,0 -3.46524,-0.66731 -3.86524,-1.33398 -0.53333,-0.8 -1.46757,-0.9332 -2.26757,-0.5332 -0.8,0.53333 -2.26732,-0.13347 -3.33399,-1.4668 -0.8,-1.13333 -1.23151,-1.69909 -1.46484,-1.73242 z" />
    <path
       id="path964"
       style="stroke-width:0.133333"
       transform="matrix(7.5,0,0,-7.5,0,3000)"
       d="m 69.5625,209.84961 c -0.209558,-0.004 -0.428907,0.0832 -0.628906,0.2832 C 68.40026,210.66615 68,212.26628 68,213.59961 68,214.93294 67.067187,216 65.867188,216 c -1.066667,0 -1.601172,0.6668 -1.201172,1.4668 1.333333,1.86666 -0.533334,8.13255 -2,7.19922 -0.666667,-0.4 -4.532683,1.06731 -8.666016,3.33398 -4.666667,2.66667 -7.333984,3.46706 -7.333984,2.40039 0,-1.33333 -0.399219,-1.20052 -1.199219,0.13281 -0.666667,1.06667 -0.933724,2.80052 -0.400391,3.86719 0.4,1.2 0.133985,1.73255 -0.666015,1.19922 -1.6,-1.06667 -3.601172,7.86758 -3.201172,14.26758 0.108748,2.50121 -0.15067,3.30007 -1.185547,3.15429 0.09591,0.65652 0.10872,1.36187 -0.0039,1.93946 0.03888,0.0327 0.07606,0.0673 0.115234,0.0996 0.114639,-0.10413 0.224443,-0.2147 0.345703,-0.31055 0.1272,-0.10053 -0.06311,0.54889 -0.189453,0.44727 -0.05397,-0.0434 -0.10285,-0.0926 -0.15625,-0.13672 -0.06074,0.0552 -0.124193,0.10723 -0.183594,0.16406 -0.07954,0.28721 -0.186232,0.51756 -0.318359,0.66992 2.03756,0.73807 2.320112,2.77149 0.109375,2.77149 -1.333333,0 -1.332292,0.2664 -0.265625,1.0664 0.933333,0.53334 1.866667,2.40143 2,4.13477 0.533333,3.06666 0.667448,3.19974 2.800781,1.0664 2.8,-2.93333 3.598828,-2.80052 2.798828,0.13282 -0.4,1.73333 0.266146,2.40039 2.132813,2.40039 C 51.332552,267.4668 52,266.53242 52,263.73242 52,261.59909 51.200391,260 50.400391,260 c -2.933334,-0.13333 -7.734375,-4.93385 -7.734375,-7.86719 0,-1.6 0.533073,-2.79883 1.066406,-2.79883 0.533333,0 1.067838,-1.06705 1.201172,-2.40039 0.933333,-9.33333 1.867317,-10.66627 7.333984,-11.59961 3.866667,-0.66666 5.733203,-0.40117 6.533203,0.79883 0.8,1.33334 1.064974,0.93321 0.931641,-1.46679 -0.266667,-1.86667 0.267318,-3.33347 1.333984,-3.4668 0.8,-0.13333 2.133594,-0.26511 2.933594,-0.39844 0.666667,0 1.59948,-2.9332 2.132812,-6.5332 1.066667,-7.86667 3.467839,-11.46849 7.201172,-10.53516 1.466667,0.4 2.398568,0.13347 1.865235,-0.5332 -0.4,-0.66667 -1.466537,-1.19922 -2.533203,-1.19922 -0.933334,0 -1.998959,-0.6668 -2.265625,-1.4668 -0.133334,-0.33333 -0.366146,-0.56705 -0.632813,-0.65039 -0.06667,-0.0208 -0.135225,-0.0319 -0.205078,-0.0332 z m -36.996094,46.24805 c -0.01246,0.0559 -0.03115,0.10711 -0.04492,0.16211 0.04485,-0.01 0.08979,-0.0209 0.134766,-0.0312 -0.0062,-0.0403 9.55e-4,-0.0812 -0.01172,-0.1211 -0.02608,-0.003 -0.05205,-0.007 -0.07813,-0.01 z" />
    <path
       d="M932 1415 c17 -39 44 -85 50 -85 5 0 8 -9 8 -19 0 -11 5 -23 10 -26 15 -9 12 19 -5 41 -8 10 -15 25 -15 32 0 7 -12 25 -26 40 -15 15 -25 23 -22 17z"
       id="path968" />
    <path
       d="M750 1341 c0 -28 48 -94 88 -120 19 -12 32 -30 32 -42 0 -11 -4 -18 -9 -15 -5 4 -11 1 -13 -6 -3 -7 13 -21 34 -31 39 -20 50 -37 23 -37 -8 0 -15 -5 -15 -10 0 -6 11 -8 25 -4 13 3 38 1 55 -4 18 -7 30 -7 30 -1 0 5 -9 9 -20 9 -11 0 -20 7 -20 15 0 8 -4 15 -10 15 -5 0 -18 8 -29 19 -10 10 -24 20 -31 23 -7 2 -11 12 -9 22 4 16 7 15 32 -10 20 -19 31 -24 38 -17 8 8 5 15 -11 23 -41 22 -158 133 -161 152 -1 4 -2 13 -3 20 -2 21 -26 20 -26 -1z"
       id="path972" />
    <path
       d="M990 1350 c0 -5 7 -10 15 -10 8 0 15 -5 15 -11 0 -16 52 -59 70 -58 11 0 10 3 -4 12 -10 7 -32 27 -49 45 -31 32 -47 40 -47 22z"
       id="path974" />
    <path
       d="M1975 1267 c-21 -11 -34 -22 -27 -25 7 -2 12 -11 11 -20 0 -11 -2 -12 -6 -4 -2 6 -9 12 -14 12 -4 0 -6 -7 -3 -15 4 -8 1 -15 -5 -15 -6 0 -11 10 -11 23 -1 21 -1 22 -15 3 -8 -11 -15 -31 -15 -45 0 -14 -7 -39 -16 -56 -10 -21 -12 -31 -4 -33 7 -3 3 -10 -9 -19 -12 -8 -21 -23 -21 -33 0 -10 -4 -20 -9 -22 -5 -2 -12 -16 -15 -33 -4 -16 -3 -24 0 -17 3 6 13 12 21 12 9 0 13 6 10 15 -4 8 -2 17 3 20 6 4 10 -3 10 -14 0 -12 4 -21 9 -21 9 0 5 55 -4 71 -4 5 1 9 9 9 15 0 24 21 29 69 2 29 16 44 79 88 34 24 48 29 56 21 21 -21 12 -33 -43 -57 -43 -18 -55 -28 -54 -45 1 -15 2 -17 6 -4 7 27 33 31 33 5 0 -17 2 -19 9 -8 5 8 7 20 4 28 -3 7 0 13 5 13 6 0 12 -8 14 -17 3 -15 4 -15 21 1 9 10 15 22 12 27 -4 5 5 9 19 9 33 0 34 23 1 40 -14 8 -28 24 -31 37 -7 27 -7 27 -59 0z"
       id="path978" />
    <path
       d="M1733 1273 c-15 -6 -18 -43 -3 -43 5 0 7 7 4 15 -4 8 -2 15 4 15 6 0 13 -6 15 -12 3 -7 6 -3 6 10 1 22 -3 25 -26 15z"
       id="path980" />
    <path
       d="M727 1250 c5 -19 33 -49 33 -35 0 4 11 0 25 -9 20 -13 25 -14 25 -3 0 8 -11 19 -25 25 -14 6 -25 16 -25 22 0 6 -4 8 -10 5 -5 -3 -10 -1 -10 4 0 6 -4 11 -9 11 -5 0 -7 -9 -4 -20z"
       id="path982" />
    <path
       d="M1040 1259 c0 -8 41 -29 56 -29 16 0 -1 18 -26 27 -17 6 -30 7 -30 2z"
       id="path984" />
    <path
       d="M1630 1227 c0 -18 2 -19 10 -7 8 12 10 12 10 -5 0 -17 2 -17 10 -5 14 22 12 27 -10 33 -15 4 -20 0 -20 -16z"
       id="path988" />
    <path
       d="M383 1130 c-1 -22 2 -42 7 -45 5 -3 9 15 8 40 -1 56 -13 60 -15 5z"
       id="path998" />
    <path
       id="path1000"
       style="stroke-width:0.133333"
       transform="matrix(7.5,0,0,-7.5,0,3000)"
       d="m 277.45703,244.29297 c -0.0642,0.006 -0.10638,0.0407 -0.12305,0.10742 -0.13333,2.4 6.79974,10.93359 9.06641,10.93359 1.46667,0 2.39935,1.1987 2.66602,3.33204 0.26666,2.66666 -0.26706,3.4677 -2.40039,3.73437 -5.73334,0.53333 -6.66602,0.79909 -6.66602,1.73242 0,0.53334 -1.33359,0.6681 -2.93359,0.13477 -1.86667,-0.4 -2.53386,-0.26784 -1.86719,0.79883 0.53333,0.93333 0.13359,1.59961 -1.06641,1.59961 -1.2,0 -2.13229,-0.79909 -2.26562,-1.73243 0,-0.8 -0.53451,-0.40026 -1.20117,1.06641 -0.66667,1.46667 -1.19922,1.86693 -1.19922,0.93359 -0.26667,-3.06666 -4.4,-8.26731 -6,-7.33398 -0.8,0.53333 -2.00078,1.06784 -2.80078,1.20117 -3.33334,0.4 -7.33204,2.26537 -7.33204,3.33203 0,1.46667 6.53308,0.13477 9.06641,-1.86523 1.46667,-1.2 2.13242,-0.4 1.73242,2 0,0.66666 0.80052,1.0664 1.86719,1.0664 1.06667,0 2,0.93334 2,2 0,1.06667 -0.93333,2 -2,2 -1.06667,0 -2,0.53204 -2,1.33204 0,1.6 3.06654,1.73424 4.5332,0.26757 0.53334,-0.53333 1.46719,-0.93307 1.86719,-1.0664 0.53333,0 2.80026,-0.80104 4.93359,-1.73438 2.26667,-0.8 5.73243,-2.2664 7.73243,-3.0664 3.06666,-1.2 4.13307,-1.06628 5.0664,0.40039 0.66667,1.2 0.53347,2.00039 -0.5332,2.40039 -0.93333,0.26666 -2.13268,1.33229 -2.66602,2.26562 C 284.40026,271.19944 282.13333,272 280,272 c -2,0 -4.00091,0.6668 -4.26758,1.4668 -0.26666,0.93333 -1.99909,1.59909 -3.73242,1.73242 -1.86667,0.13333 -4.13359,0.66784 -4.93359,1.20117 -0.93334,0.66667 -1.73243,0.66563 -1.73243,0.26563 0,-0.53334 -0.93476,0.1345 -2.13476,1.20117 -1.06667,1.2 -2.66537,1.86679 -3.33203,1.46679 -0.66667,-0.53333 -1.20117,-2.6e-4 -1.20117,1.06641 0,1.06667 -1.46537,2.39883 -3.33204,2.79883 -3.33333,0.8 -3.99987,2.66797 -2.5332,6.66797 0.93333,2.53333 3.99974,2.80039 5.06641,0.40039 0.4,-0.8 0.53372,-0.66732 0.40039,0.66601 -0.4,3.2 0.26575,3.20039 7.73242,0.40039 13.1105,-4.69792 28.89093,-12.07704 35.41602,-16.35156 0.35402,-1.13181 0.54801,-1.60547 0.93945,-1.64258 0.21577,-0.0204 0.50859,0.1 0.9082,0.30274 0.44176,-0.36405 0.80946,-0.70205 1.00391,-0.97656 0.0661,-0.0991 0.13221,-0.17689 0.19726,-0.23633 -0.14542,-0.28735 -0.33741,-0.50768 -1.03125,-1.42383 -0.31538,-0.41644 -0.69295,-0.7878 -0.98242,-1.22266 -0.491,-0.73761 -0.95312,-1.49424 -1.41211,-2.25195 -0.16998,-0.0682 -0.3305,-0.11933 -0.50586,-0.19727 -2.53333,-1.06666 -4.5332,-1.3332 -4.5332,-0.5332 0,0.66667 -0.53398,1.19922 -1.33398,1.19922 -1.25105,0 -3.56137,-7.45614 -3.63672,-10.97656 -1.0587,-1.27922 -1.0884,-1.28819 -1.02149,-2.25196 -0.1777,-1.45122 -0.483,-2.75218 -0.61914,-4.04882 -0.85516,-0.94787 -1.77931,-1.96739 -2.45508,-2.72266 -2.4,-2.53333 -4.26757,-3.86745 -4.26757,-2.80078 0,1.06667 1.06757,2.66823 2.26757,3.60156 1.33334,0.93333 2.00065,2.13268 1.33399,2.66602 -0.53334,0.53333 -2.80026,-1.06628 -4.9336,-3.59961 -1.6,-1.9 -2.97539,-3.19961 -3.61914,-3.50586 -0.10729,-0.0511 -0.19358,-0.0742 -0.25781,-0.0684 z m 15.20899,29.04101 c 1.86666,0 3.33398,0.53256 3.33398,1.19922 0,0.66667 -1.33359,1.73425 -2.93359,2.26758 -1.73334,0.4 -6.5336,2.53268 -10.9336,4.66602 -4.26666,2.13333 -9.73281,4.13372 -12.13281,4.40039 -2.4,0.26666 -5.59974,1.2 -7.06641,2 -2.13333,1.06666 -3.0677,1.06523 -3.73437,-0.13477 -0.53333,-0.93333 -0.53333,-1.33164 0,-0.93164 0.53333,0.53333 2.53424,-0.53476 4.26758,-2.13476 1.86666,-1.73334 4.26588,-2.79987 5.19922,-2.53321 0.93333,0.4 3.20026,-2.6e-4 4.93359,-0.93359 1.73333,-0.93333 4.26771,-1.86615 5.73437,-2.13281 1.46667,-0.26667 3.19857,-1.06576 3.86524,-1.73243 0.8,-0.8 2.40104,-1.33398 3.73437,-1.33398 1.33334,0 2.40039,-0.66732 2.40039,-1.33398 0,-0.8 1.46537,-1.33204 3.33204,-1.33204 z" />
    <path
       d="M965 1139 c-8 -12 -10 -11 38 -33 40 -18 51 -51 20 -59 -12 -3 -10 -5 7 -6 40 -1 55 13 35 33 -9 9 -13 16 -8 17 130 12 160 27 52 25 -70 -1 -91 2 -106 17 -23 20 -29 21 -38 6z"
       id="path1002" />
    <path
       d="M420 1111 c-14 -27 -13 -31 10 -31 10 0 24 -8 29 -17 9 -16 10 -15 11 6 0 13 -3 22 -6 18 -10 -9 -32 16 -27 30 8 20 -5 15 -17 -6z"
       id="path1004" />
    <path
       d="M1990 1107 c-25 -13 -53 -21 -62 -19 -10 2 -18 -1 -18 -7 0 -5 12 -8 28 -6 38 5 102 33 102 45 0 12 4 13 -50 -13z"
       id="path1006" />
    <path
       d="M720 1086 c0 -8 16 -12 45 -12 52 0 48 11 -7 19 -27 4 -38 2 -38 -7z"
       id="path1010" />
    <path
       d="M871 1093 c-1 -7 -8 -10 -16 -7 -9 4 -15 0 -15 -7 0 -11 -3 -11 -10 1 -8 13 -10 12 -10 -4 0 -15 5 -17 27 -11 34 8 36 10 30 27 -4 9 -6 9 -6 1z"
       id="path1012" />
    <path
       d="M2038 1078 c-33 -11 -37 -33 -8 -35 11 -1 18 2 15 8 -4 5 -4 9 -1 9 2 0 11 3 19 6 10 3 17 -2 20 -13 3 -13 5 -11 6 7 1 20 3 22 11 10 8 -13 10 -12 10 3 0 19 -28 22 -72 5z"
       id="path1014" />
    <path
       d="M1393 1040 c-1 -11 2 -18 8 -15 5 4 9 -8 9 -24 0 -30 2 -31 44 -31 26 0 46 5 49 13 4 10 6 10 6 0 1 -15 49 -17 70 -4 9 6 22 6 32 0 11 -5 20 -5 23 0 3 5 31 8 61 8 40 -2 55 2 55 12 0 8 6 11 15 7 10 -3 15 1 15 12 0 13 2 14 9 3 5 -7 11 -9 14 -4 7 11 -4 27 -19 30 -48 9 -184 11 -184 3 0 -6 7 -11 15 -11 31 -3 35 -4 35 -14 0 -5 -7 -9 -15 -9 -8 1 -22 2 -30 3 -8 0 -15 10 -15 21 0 21 -8 24 -35 14 -12 -5 -13 -9 -5 -14 9 -6 9 -13 1 -26 -10 -18 -10 -18 -11 -1 0 16 -2 16 -30 2 -36 -19 -40 -19 -40 0 0 9 6 12 15 9 10 -4 15 0 15 14 0 15 -6 20 -20 19 -15 -1 -20 -8 -20 -29 0 -18 -5 -28 -15 -28 -18 0 -19 12 -3 28 14 14 11 18 -22 27 -21 5 -26 2 -27 -15z m347 -10 c0 -11 -21 -18 -42 -12 -28 7 -21 19 12 20 17 0 30 -3 30 -8z"
       id="path1018" />
    <path
       d="M530 1034 c0 -16 5 -21 23 -19 35 4 37 5 37 14 0 5 -9 7 -21 4 -12 -4 -25 0 -30 8 -7 11 -9 9 -9 -7z"
       id="path1022" />
    <path
       d="M940 1019 c0 -26 -3 -30 -10 -19 -8 12 -10 12 -10 1 0 -10 -3 -11 -14 -2 -11 9 -15 9 -19 -1 -3 -8 -6 -5 -7 7 -1 20 -1 20 -11 0 -8 -17 -9 -16 -6 8 3 18 0 27 -9 27 -9 0 -14 -12 -14 -33 l0 -34 56 3 c66 3 88 10 79 24 -4 6 -11 8 -16 5 -5 -4 -9 -1 -9 5 0 19 35 6 40 -15 5 -18 15 -20 86 -21 43 -1 90 -3 104 -4 67 -6 100 0 100 18 0 9 -4 13 -8 7 -12 -16 -32 -16 -32 0 0 8 -4 15 -10 15 -5 0 -7 -7 -4 -15 4 -10 0 -15 -14 -15 -11 0 -23 8 -25 18 -4 16 -5 16 -6 0 -1 -18 -21 -26 -21 -10 0 5 -20 8 -45 7 -26 -1 -45 3 -45 9 0 7 -3 8 -8 1 -13 -18 -42 -17 -43 2 0 16 -1 16 -9 -2 -9 -20 -9 -20 -10 0 -2 11 -2 25 0 30 1 6 -4 4 -11 -2 -10 -10 -16 -9 -31 4 -17 15 -18 14 -18 -18z"
       id="path1024" />
    <path
       d="M1340 1042 c0 -6 -8 -9 -17 -7 -10 1 -22 0 -28 -4 -5 -3 -16 -6 -24 -6 -8 0 -16 -7 -18 -15 -3 -9 -1 -11 4 -5 9 11 27 14 86 16 21 1 37 2 35 3 -2 1 -11 8 -20 15 -11 8 -18 9 -18 3z"
       id="path1026" />
    <path
       d="M400 1005 c0 -28 3 -33 17 -28 11 4 14 3 9 -5 -4 -7 -3 -12 3 -12 5 0 12 6 14 13 3 7 6 5 6 -5 1 -11 6 -15 16 -12 8 4 15 1 15 -5 0 -6 7 -11 15 -11 30 0 94 -32 109 -55 8 -12 16 -35 18 -51 2 -16 9 -35 16 -42 6 -7 12 -20 12 -28 0 -8 5 -14 10 -14 6 0 10 -4 10 -10 0 -5 -8 -10 -17 -10 -17 -1 -17 -1 0 -11 10 -6 17 -22 17 -39 0 -36 16 -40 22 -5 3 13 1 22 -3 19 -5 -3 -9 6 -9 20 0 14 5 26 10 26 6 0 10 5 10 11 0 5 -4 7 -10 4 -5 -3 -10 -1 -10 5 0 6 -4 8 -10 5 -6 -4 -10 7 -10 24 0 17 5 31 10 31 6 0 10 5 10 11 0 5 -4 8 -10 4 -5 -3 -17 9 -26 26 -10 21 -12 34 -5 38 5 4 8 17 4 30 -4 15 -8 19 -13 10 -6 -9 -16 -6 -38 10 -17 12 -34 20 -39 19 -10 -3 -53 20 -71 39 -7 7 -24 13 -38 13 -13 0 -24 5 -24 10 0 6 -4 10 -10 10 -5 0 -10 -16 -10 -35z"
       id="path1028" />
    <path
       d="M792 1010 c0 -16 4 -32 9 -35 5 -4 9 10 9 29 0 43 -17 49 -18 6z"
       id="path1030" />
    <path
       id="path1040"
       style="stroke-width:0.133333"
       transform="matrix(7.5,0,0,-7.5,0,3000)"
       d="m 39.632812,266.7168 c -0.333333,-0.05 -0.898567,0.68346 -1.365234,2.21679 -0.122849,0.61425 -0.375474,1.41097 -0.646484,2.19532 -0.116988,1.12394 -0.237367,2.24964 -0.335938,3.37304 -0.0771,0.38661 -0.147343,0.77778 -0.21875,1.16797 0.405092,0.11046 0.929936,0.15188 1.734375,0.0625 1.733334,-0.13333 7.2,1.46732 12,3.33399 4.8,2 9.731641,3.59961 10.931641,3.59961 1.2,0 2.267578,0.80104 2.267578,1.73437 0,1.46667 1.732422,2.1332 7.732422,2.5332 0.8,0.13334 1.601562,1.06563 1.601562,2.26563 0,1.86667 0.265365,1.8681 1.332032,0.13476 C 75.599349,287.86732 76,288.39909 76,291.73242 c 0,2.66667 -0.533984,4.1349 -1.333984,3.60156 -0.666667,-0.4 -1.332032,0.13204 -1.332032,1.33204 0,1.2 0.665365,1.73398 1.332032,1.33398 0.8,-0.4 1.333984,-0.26628 1.333984,0.40039 0,0.66667 1.199349,1.6 2.666016,2 1.733333,0.4 2.667968,-0.001 2.667968,-1.20117 0,-1.06667 -0.801562,-1.73346 -1.601562,-1.4668 -2.666667,0.4 -2.931771,-5.99857 -0.398438,-7.86523 2,-1.46667 2.000131,-1.73451 -0.533203,-3.20117 C 77.200781,285.86602 76,285.6 76,286 c 0,0.4 -2.665755,-0.79935 -5.732422,-2.66602 -3.2,-1.86666 -6.801432,-3.33398 -8.134766,-3.33398 -1.199999,0 -2.533593,-0.80052 -2.933593,-1.86719 -0.4,-1.06666 -1.466537,-1.73203 -2.533203,-1.33203 -0.933334,0.4 -2.532422,-0.26732 -3.732422,-1.33398 -1.2,-1.2 -3.467839,-2.13282 -5.201172,-2.13282 -6.133333,0 -8.799479,-1.46809 -8.132813,-4.13476 0.466667,-1.6 0.366537,-2.43242 0.0332,-2.48242 z" />
    <path
       d="M1940 971 c0 -25 -17 -28 -23 -3 -3 12 -5 10 -7 -8 -1 -23 -2 -23 -10 -5 -8 19 -9 19 -9 -2 -1 -22 -21 -44 -21 -22 0 8 -4 8 -15 -1 -8 -7 -15 -29 -15 -48 0 -37 15 -35 22 3 2 12 18 25 45 35 59 22 70 34 49 55 -15 15 -16 15 -16 -4z"
       id="path1042" />
    <path
       d="M1787 919 c-22 -51 -27 -69 -19 -69 15 0 53 83 43 93 -6 6 -15 -4 -24 -24z"
       id="path1046" />
    <path
       id="path1048"
       style="stroke-width:0.133333"
       transform="matrix(7.5,0,0,-7.5,0,3000)"
       d="m 36.585938,277.93359 c -0.01045,0.0399 -0.01658,0.0813 -0.02734,0.1211 -0.410166,1.51652 -0.885058,3.01345 -1.34961,4.51367 2.57917,-0.4598 7.198062,0.96963 9.457032,3.69922 1.2,1.33333 5.466927,2.53164 10.933593,2.93164 0.8,0.13333 2.400131,1.0681 3.466797,2.13476 1.733334,1.6 1.999349,1.5987 2.666016,-0.66796 0.4,-1.46667 0.133463,-2.26524 -0.533203,-1.86524 -0.666667,0.4 -1.6,-0.26732 -2,-1.33398 -0.4,-1.2 -1.333334,-1.73399 -2,-1.33399 C 56.532548,286.53281 56,286.13255 56,285.19922 c 0,-0.93333 -1.332422,-1.33216 -3.732422,-0.79883 -4.266667,0.8 -7.733725,-0.66693 -6.40039,-2.93359 0.533332,-0.8 0.399609,-1.4668 -0.400391,-1.4668 -0.666667,0 -1.467708,0.66628 -1.734375,1.59961 -0.4,1.06667 -1.465886,0.66693 -3.199219,-1.06641 -1.661602,-1.53378 -2.825415,-2.35488 -3.947265,-2.59961 z m -1.080079,6.39844 c -0.210327,0.006 -0.489844,0.10929 -0.839843,0.33399 -0.03266,0.0196 -0.05726,5.2e-4 -0.08984,0.0176 -0.564509,1.83811 -1.112209,3.68157 -1.558594,5.55469 -0.210413,1.08263 -0.272411,2.20503 -0.630859,3.24805 -0.307931,0.89601 -0.676488,1.76959 -1.070313,2.63281 0.909002,0.067 1.81534,0.1879 2.683594,0.14844 4.8,-0.26667 5.59974,0.13307 9.066406,5.0664 2,3.06667 4.266927,5.06602 4.933594,4.66602 0.8,-0.4 1.333984,0.66654 1.333984,2.5332 0,3.06667 1.065496,3.86732 4.798828,3.33399 0.533335,0 1.334374,0.53203 1.734376,1.33203 0.799999,1.33333 8.667057,2.4013 18.40039,2.66797 2.8,0.13333 4.398828,0.93372 4.798828,2.40039 0.533334,2.26666 0.667447,2.26666 0.800782,0 0.133332,-1.6 0.665755,-2.00065 1.732421,-1.33399 2,1.06667 9.066407,1.86693 9.066407,0.9336 0,-0.4 -1.199349,-1.8668 -2.666016,-3.4668 -1.466667,-1.6 -2.666016,-2.26628 -2.666016,-1.59961 0,0.66667 -1.201302,1.33346 -2.667968,1.4668 C 81.199345,314.40088 80,313.73268 80,312.66602 c 0,-2.53334 2.266406,-3.73243 3.066406,-1.73243 0.4,0.93334 0.800781,0.53308 0.800782,-0.93359 0.133332,-1.86667 -0.666537,-2.80078 -2.533204,-2.80078 -2,0 -2.667968,0.93437 -2.667968,3.73437 0,2.66667 -0.533334,3.46693 -2,2.9336 -1.066667,-0.53334 -2,-1.86641 -2,-3.06641 C 74.532682,309.33411 73.99987,309.6 72.533203,312 l -2,3.33398 0.533203,-4.40039 c 0.266667,-2.4 6.51e-4,-4.6664 -0.666015,-5.0664 -0.533334,-0.4 -1.201172,0.93307 -1.201172,3.0664 -0.133334,2.66667 -0.398828,2.93308 -0.798828,1.06641 -0.266667,-1.6 -1.733073,-3.46706 -3.066407,-4.40039 -2.4,-1.46667 -2.667968,-1.20026 -2.667968,3.06641 0,4.4 -0.266016,4.66731 -2.666016,3.33398 -1.466667,-0.8 -2.666016,-2.79987 -2.666016,-4.5332 0,-1.73334 -0.8,-3.06641 -2,-3.06641 -1.066666,0 -2,0.6668 -2,1.4668 0,0.66666 -0.933333,0.13268 -2,-1.33399 -1.066666,-1.33333 -2,-2.00013 -2,-1.46679 0,0.66666 -1.601562,-0.79922 -3.601562,-3.19922 -2.133333,-2.4 -3.598177,-5.06771 -3.464844,-5.73438 0.266667,-0.8 -1.201693,-1.59909 -3.068359,-1.73242 -4.533334,-0.26667 -6.932162,-2.53463 -4.798828,-4.66797 1.5,-1.5 1.949218,-3.15 1.292968,-3.375 -0.05469,-0.0188 -0.117391,-0.0274 -0.1875,-0.0254 z M 10.953125,330.7168 c 0.05693,0.14706 0.113317,0.29524 0.1875,0.4082 0.03009,-0.0476 0.06711,-0.0909 0.09375,-0.14062 0.04215,-0.0787 0.07005,-0.16409 0.109375,-0.24415 -0.13036,-0.006 -0.260332,-0.0165 -0.390625,-0.0234 z" />
    <path
       id="path1050"
       style="stroke-width:0.133333"
       transform="matrix(7.5,0,0,-7.5,0,3000)"
       d="m 312.16797,287.58984 c -0.005,0.045 -0.007,0.0909 -0.0137,0.13477 0.0264,-0.009 0.0524,-0.019 0.0781,-0.0293 -0.0214,-0.0352 -0.0431,-0.0702 -0.0644,-0.10547 z" />
    <path
       id="path1052"
       style="stroke-width:0.133333"
       transform="matrix(7.5,0,0,-7.5,0,3000)"
       d="m 300.5,282.01758 c -0.36667,-0.05 -0.56706,0.58294 -0.90039,1.84961 -0.4,1.6 -1.59974,2.39896 -3.06641,2.26562 -1.46666,-0.26666 -2.79922,3.9e-4 -3.19922,0.40039 -0.53333,0.66667 -20.00039,7.20026 -38.40039,12.9336 -0.93333,0.26666 -1.33359,1.06718 -0.93359,1.86718 0.53333,0.8 1.46758,0.93321 2.26758,0.53321 0.8,-0.53334 1.99935,2.6e-4 2.66601,0.93359 1.06667,1.46667 1.19987,1.33346 0.53321,-0.5332 -0.53334,-1.86667 -0.13295,-2.13347 2.40039,-1.4668 1.73333,0.4 3.59948,0.13203 4.13281,-0.66797 0.4,-0.8 1.46615,-1.19883 2.13281,-0.79883 0.66667,0.53334 1.20117,0.26576 1.20117,-0.26757 0,-1.2 1.46667,-1.59948 8,-2.13282 1.86667,-0.13333 3.99935,-0.93437 4.66602,-1.73437 0.8,-0.8 4.79974,-2.79987 9.06641,-4.5332 4.13333,-1.6 8.00039,-3.46615 8.40039,-4.13282 1.06666,-1.73333 3.19922,-0.13242 3.19922,2.26758 0,1.06667 -0.53204,1.59922 -1.33204,1.19922 C 300.66732,289.6 300,289.73424 300,290.26758 c 0,0.66666 -2.53294,1.7332 -5.59961,2.5332 -4.26667,0.8 -5.73294,1.8668 -5.59961,3.4668 0.13333,1.33333 -0.26693,1.99961 -0.93359,1.59961 -0.66667,-0.4 -1.20117,0.26536 -1.20117,1.33203 0,2.53333 -4.93256,4.13424 -7.19922,2.26758 -1.2,-1.06667 -2.80091,-0.40065 -6.26758,2.66601 -2.4,2.13334 -5.46602,3.73347 -6.66602,3.4668 -1.2,-0.26667 -3.20039,0.001 -4.40039,0.66797 -1.6,0.93333 -2.13229,0.66549 -2.26562,-1.20117 0,-1.33334 -0.40078,-1.73217 -0.80078,-0.79883 -0.4,1.2 -1.46719,1.19961 -3.86719,-0.40039 -2,-1.33334 -3.19922,-1.6013 -3.19922,-0.66797 0,0.8 0.93333,1.4668 2,1.4668 1.06667,0 2,0.66731 2,1.33398 0,1.86667 6.53372,4.26641 8.40039,3.06641 0.93333,-0.53334 2.79896,-1.20065 4.26563,-1.33399 1.33333,-0.26666 2.93398,-0.93151 3.33398,-1.46484 0.66667,-1.06667 3.0668,-1.73425 7.4668,-2.26758 1.6,-0.26667 4.13294,-1.06719 5.59961,-1.86719 1.46666,-0.8 4.00013,-1.46679 5.46679,-1.46679 1.6,0 2.80078,-0.53256 2.80078,-1.19922 0,-0.66667 1.59909,-1.59948 3.73243,-2.13282 2,-0.4 4.66718,-1.73359 5.86718,-2.93359 2,-1.86667 2.39896,-1.59974 4.26563,2.93359 1.33333,3.06667 2.66823,4.53191 3.60156,3.86524 0.93333,-0.53333 1.33164,-0.13307 0.93164,0.93359 -0.53333,1.73334 -11.86549,8.00117 -12.79883,7.20117 -0.53333,-0.53333 -5.59961,4.26589 -5.59961,5.19922 0,1.06667 4.13295,-0.13294 5.59961,-1.59961 0.93334,-0.93333 2.93269,-1.59961 4.66602,-1.59961 1.73333,0 3.46719,-0.93333 3.86719,-2 1.46666,-3.73333 4.5332,0.5323 4.5332,6.26563 0,2.8 0.53255,4.93372 1.19922,4.40039 0.66667,-0.4 1.73424,0.66758 2.26758,2.26758 0.4,1.73333 2.00013,4.79883 3.46679,6.79883 1.46667,2 2.80026,6.13307 2.9336,9.0664 0.26666,4.53334 1.20013,6.13438 5.46679,9.73438 3.33334,2.93333 4.53295,4.66536 3.59961,5.33203 -0.93333,0.53333 -1.59961,3.86823 -1.59961,7.60156 0,3.6 -0.53398,6.5332 -1.33398,6.5332 -0.66667,0 -1.33398,0.53256 -1.33398,1.19922 0,1.2 5.06783,3.20026 7.20117,2.9336 0.20645,-0.0459 0.54636,0.11738 0.92969,0.35547 0.44483,-2.67943 0.76244,-4.77529 0.96289,-6.46289 -1.49288,0.35845 -3.2864,1.29536 -4.02735,2.50781 -0.53333,0.8 -1.0664,-1.46693 -1.0664,-4.9336 0,-4 0.53398,-6.13294 1.33398,-5.59961 1.33333,0.8 1.86732,-1.06796 1.33398,-4.66796 C 333.20065,353.59935 331.73333,351.6 330,350 c -4.26667,-3.6 -5.99948,-8.66576 -6.13281,-17.73242 C 323.73385,326.80091 323.46745,325.6 322.80078,328 l -0.93359,3.33398 -2.26758,-4.26757 c -1.2,-2.4 -2.26563,-5.73347 -2.26563,-7.4668 0,-1.73333 -1.2013,-4.53229 -2.66796,-6.26563 -3.46667,-4 -2.79896,-6.00052 1.73437,-5.86718 2,0.13333 3.59961,-0.40026 3.59961,-0.9336 0,-1.2 -2.00026,-1.73398 -4.93359,-1.33398 -0.93334,0.13333 -1.73243,-0.66524 -1.73243,-1.86524 0,-1.06666 -0.53398,-2 -1.33398,-2 -0.66667,0 -1.33398,-0.66679 -1.33398,-1.46679 0,-0.66667 0.66731,-0.93321 1.33398,-0.53321 0.8,0.4 1.33398,0.13347 1.33398,-0.5332 0,-0.8 -0.93333,-1.4668 -2,-1.4668 -1.06666,0 -1.86822,-0.66822 -1.60156,-1.60156 C 309.86576,294.79909 309.06667,294.13333 308,294 c -1.2,0 -1.86628,-1.06654 -1.59961,-2.5332 0.26667,-1.33334 -0.001,-2.93399 -0.66797,-3.33399 -0.66666,-0.4 -2.13203,-2.1319 -3.33203,-3.86523 -1,-1.46667 -1.53372,-2.2 -1.90039,-2.25 z" />
    <path
       d="M840 867 c0 -10 16 -14 57 -16 31 -1 59 -2 62 -3 3 0 30 0 59 1 42 1 52 4 52 19 0 14 -2 14 -9 3 -7 -11 -13 -12 -23 -4 -14 11 -48 14 -48 4 0 -9 -124 -6 -138 3 -7 4 -12 1 -12 -7z"
       id="path1054" />
    <path
       d="M1619 819 c-17 -17 -28 -33 -25 -36 3 -4 15 3 27 15 11 13 23 20 28 18 4 -3 8 4 8 15 2 25 -1 24 -38 -12z"
       id="path1058" />
    <path
       d="M745 831 c-10 -10 -4 -19 15 -24 11 -3 20 -1 20 4 0 5 4 9 9 9 5 0 8 -8 7 -17 -2 -12 -12 -18 -31 -18 -22 0 -31 6 -37 25 -6 20 -7 17 -4 -11 3 -20 -1 -47 -8 -60 -7 -14 -9 -37 -5 -54 12 -53 10 -68 -6 -61 -10 3 -15 -1 -15 -11 0 -9 3 -13 7 -10 3 4 12 2 19 -4 18 -15 33 -3 27 20 -3 10 0 22 6 25 6 4 11 3 11 -2 0 -5 9 -12 20 -15 13 -3 20 0 20 9 0 8 -4 14 -10 14 -5 0 -10 8 -10 18 0 15 -2 15 -11 2 -8 -11 -12 -12 -16 -2 -2 6 -8 10 -11 8 -4 -2 -8 16 -10 40 -2 39 0 44 18 44 12 0 20 -7 21 -17 0 -15 2 -15 9 2 9 20 9 20 10 0 1 -12 7 -4 13 20 17 56 37 57 37 2 0 -41 1 -43 30 -43 17 0 30 4 30 9 0 5 -7 7 -15 3 -8 -3 -15 -1 -15 5 0 6 -4 7 -10 4 -5 -3 -10 1 -10 9 0 9 3 15 8 15 20 -3 24 2 8 14 -16 12 -16 13 3 14 13 1 21 -4 21 -14 0 -11 6 -14 24 -9 22 5 25 2 29 -26 4 -31 4 -30 6 7 1 22 5 36 9 30 4 -5 14 -10 22 -10 8 0 18 5 22 10 5 6 8 6 8 -2 0 -12 17 -12 38 0 7 5 12 3 12 -3 0 -6 4 -9 9 -6 5 4 12 0 14 -6 3 -8 6 -6 6 4 1 28 41 11 41 -17 0 -5 -4 -4 -9 3 -6 11 -10 10 -15 -4 -3 -9 -5 -18 -3 -20 1 -2 49 -6 105 -9 69 -4 102 -3 102 4 0 10 -12 13 -37 10 -4 0 -10 8 -14 18 -7 17 -8 17 -8 1 -1 -10 -6 -18 -12 -18 -5 0 -7 5 -4 10 3 6 2 10 -4 10 -5 0 -12 -6 -14 -12 -3 -7 -6 2 -6 20 -1 29 1 32 17 23 13 -7 23 -6 30 1 8 8 12 8 12 2 0 -6 7 -11 15 -11 8 0 12 4 9 9 -3 4 2 8 10 8 12 0 16 -11 18 -42 l1 -43 7 45 c4 25 8 36 9 25 2 -18 3 -17 12 5 8 20 12 22 19 10 8 -12 10 -10 10 8 0 23 -2 24 -57 17 -107 -12 -514 -10 -521 2 -7 11 -48 14 -57 4z m434 -48 c0 -5 -4 -17 -9 -28 -9 -20 -9 -20 -9 0 -1 17 -3 17 -11 5 -8 -12 -10 -11 -10 8 0 15 6 22 20 22 11 0 20 -3 19 -7z"
       id="path1060" />
    <path
       d="M1434 817 c8 -25 -4 -44 -15 -26 -6 10 -9 10 -9 2 0 -20 17 -24 33 -8 12 11 17 12 20 2 3 -6 6 2 6 18 1 23 -2 27 -9 15 -9 -13 -11 -13 -21 0 -9 13 -10 12 -5 -3z"
       id="path1062" />
    <path
       d="M1558 792 c2 -25 9 -39 18 -39 8 0 14 7 14 14 0 8 -5 11 -11 7 -8 -5 -9 -2 -1 11 7 14 6 22 -3 32 -20 19 -21 17 -17 -25z"
       id="path1064" />
    <path
       d="M480 805 c0 -8 5 -15 11 -15 5 0 7 -6 3 -12 -4 -7 -4 -10 1 -6 4 4 14 3 21 -3 8 -7 14 -7 19 1 8 13 -4 32 -16 25 -5 -4 -9 -2 -9 3 0 6 -7 12 -15 16 -9 3 -15 0 -15 -9z"
       id="path1068" />
    <path
       d="M1790 800 c-6 -11 -8 -25 -5 -30 3 -5 0 -7 -7 -5 -9 4 -19 -8 -27 -32 -19 -51 -37 -69 -56 -53 -12 10 -15 9 -15 -9 0 -11 5 -21 10 -21 6 0 10 -7 10 -15 0 -8 -7 -15 -15 -15 -8 0 -15 -4 -15 -10 0 -5 7 -7 15 -4 15 6 22 -16 9 -29 -12 -11 -34 6 -34 27 -1 21 -1 21 -12 1 -6 -11 -24 -32 -39 -47 -16 -15 -29 -31 -29 -36 0 -5 -11 -15 -25 -22 -13 -7 -24 -16 -23 -19 2 -17 -3 -25 -10 -15 -5 8 -29 -1 -75 -27 -38 -22 -81 -42 -95 -45 -15 -4 -32 -10 -37 -15 -6 -4 -20 -7 -31 -7 -11 1 -34 -4 -52 -11 -27 -11 -29 -15 -19 -32 6 -10 15 -19 20 -19 4 0 6 3 4 8 -3 4 17 8 44 9 52 2 144 27 169 47 8 7 32 21 53 31 20 11 37 25 37 32 0 17 17 17 24 1 3 -7 3 -2 0 11 -4 14 -1 27 7 32 18 12 32 11 24 0 -10 -16 12 -22 39 -10 14 7 26 18 26 26 0 7 5 13 10 13 6 0 10 11 10 25 0 17 8 29 25 37 14 6 25 15 25 20 0 5 -4 6 -10 3 -6 -4 -10 9 -10 32 0 28 3 34 10 23 7 -11 10 -12 10 -2 0 9 7 11 19 7 11 -3 22 -1 26 4 3 7 0 8 -9 5 -22 -8 -20 10 7 59 35 65 47 97 37 97 -5 0 -14 -9 -20 -20z m-125 -261 c-4 -6 -13 -8 -21 -5 -10 4 -14 -3 -14 -26 0 -39 -13 -29 -16 12 -2 27 1 30 28 30 18 0 27 -4 23 -11z"
       id="path1070" />
    <path
       id="path1072"
       style="stroke-width:0.133333"
       transform="matrix(7.5,0,0,-7.5,0,3000)"
       d="m 31.503906,297.45898 c -0.40037,-0.0334 -0.716929,0.18452 -1.097656,0.54688 -0.06974,0.13954 -0.132909,0.28271 -0.203125,0.42187 -0.07784,0.15428 -0.154339,0.21737 -0.230469,0.23243 C 29.442814,300.442 32.240198,304 34.400391,304 c 1.2,0 4.266015,1.19935 6.666015,2.66602 2.4,1.46666 4.934375,2.66796 5.734375,2.66796 2,0 -1.734114,-3.46653 -4.800781,-4.5332 -1.466667,-0.4 -4.267578,-2.2681 -6.267578,-4.13476 -2.416667,-2.25 -3.478516,-3.14454 -4.228516,-3.20704 z" />
    <path
       d="M1530 747 c0 -37 -103 -137 -132 -129 -5 1 -8 -2 -8 -6 0 -5 -6 -9 -14 -9 -8 0 -35 -15 -59 -34 -40 -30 -46 -40 -49 -79 -3 -25 -4 -46 -3 -48 1 -1 21 0 44 4 25 4 41 12 41 21 0 10 -4 11 -19 3 -26 -13 -51 -3 -51 22 0 10 3 17 8 14 14 -8 155 29 160 43 3 8 0 11 -6 7 -6 -3 -32 -10 -59 -15 -26 -5 -56 -13 -65 -16 -11 -4 -18 -2 -18 4 0 7 17 19 38 27 91 37 202 119 202 151 0 7 7 13 15 13 12 0 13 4 3 25 -14 31 -28 32 -28 2z"
       id="path1074" />
    <path
       d="M1719 758 c-1 -7 -1 -16 0 -20 0 -4 -8 -10 -19 -13 -23 -7 -27 -25 -5 -25 8 0 15 6 15 13 0 8 4 7 10 -3 9 -13 10 -13 10 0 0 8 3 25 6 38 4 13 2 22 -5 22 -6 0 -12 -6 -12 -12z"
       id="path1076" />
    <path
       d="M1010 752 c0 -7 -4 -11 -9 -8 -5 3 -11 -1 -15 -9 -6 -17 7 -18 67 -9 20 4 37 10 37 15 0 4 -10 6 -22 4 -12 -3 -26 1 -30 8 -6 9 -8 8 -8 -3 0 -13 -1 -13 -10 0 -7 11 -10 11 -10 2z"
       id="path1078" />
    <path
       d="M1450 704 c-36 -24 -70 -49 -77 -54 -7 -6 -15 -10 -19 -10 -4 0 -36 -19 -71 -41 -45 -29 -63 -48 -63 -63 0 -12 -3 -16 -8 -10 -4 6 -28 10 -54 9 -27 -1 -48 1 -48 5 0 5 -8 7 -17 6 -10 -2 -23 4 -30 13 -11 14 -12 14 -13 1 0 -27 52 -49 133 -54 65 -4 77 -3 77 11 0 9 -6 13 -15 9 -8 -3 -15 -1 -15 5 0 13 121 89 143 89 10 0 22 10 27 23 5 12 9 16 9 9 1 -7 12 -1 26 14 14 15 25 22 25 16 0 -7 8 -5 20 5 11 10 20 23 20 31 0 7 5 10 10 7 6 -3 10 1 10 9 0 20 7 23 -70 -30z"
       id="path1080" />
    <path
       d="M1832 738 c-15 -15 -16 -57 -2 -92 5 -14 6 -26 2 -26 -4 0 -13 -15 -21 -32 -22 -50 -170 -188 -202 -188 -17 0 -88 -29 -99 -40 -3 -3 -30 -18 -60 -34 -30 -16 -64 -37 -75 -47 -11 -9 -42 -20 -70 -24 -27 -4 -61 -9 -75 -11 -14 -2 -67 -7 -117 -10 -77 -6 -93 -10 -93 -24 0 -14 8 -15 72 -9 39 5 75 6 80 3 4 -3 8 0 8 6 0 8 9 10 25 6 17 -4 25 -2 26 6 0 7 4 4 9 -7 6 -14 9 -15 9 -5 1 12 13 16 48 17 26 1 49 7 51 13 3 8 8 7 18 -1 11 -9 14 -9 14 0 0 7 6 19 14 27 11 11 16 11 19 1 4 -7 6 -6 6 4 1 18 27 33 42 23 5 -3 9 0 9 7 0 8 4 8 15 -1 9 -7 19 -10 22 -6 4 4 1 11 -7 16 -17 10 -4 30 23 34 9 1 25 10 37 21 11 10 20 14 20 8 0 -14 73 -8 78 6 2 6 8 11 14 11 6 0 31 16 54 36 33 26 44 31 44 19 0 -9 -4 -13 -10 -10 -5 3 -10 0 -10 -8 0 -8 -7 -17 -15 -21 -8 -3 -15 -10 -15 -16 0 -6 14 -2 30 10 26 18 30 28 30 66 0 30 5 46 15 50 8 4 15 12 15 20 0 8 7 14 15 14 8 0 15 -4 15 -10 0 -5 -4 -10 -9 -10 -4 0 -11 -25 -14 -55 -4 -41 -13 -64 -36 -92 -17 -20 -27 -40 -22 -43 4 -3 11 -12 14 -20 4 -10 6 -8 6 6 1 22 25 39 42 28 5 -3 9 8 9 23 0 16 5 34 12 41 9 9 9 15 1 23 -8 8 -8 20 -3 35 5 13 7 24 3 24 -3 0 2 9 13 21 17 19 17 22 3 32 -18 13 -14 35 10 55 14 12 14 13 -1 8 -10 -3 -18 -1 -18 4 0 6 4 10 9 10 10 0 9 21 -3 80 -5 25 -4 31 3 20 11 -16 27 -8 16 9 -8 14 -28 14 -43 -1z"
       id="path1082" />
    <path
       id="path1084"
       style="stroke-width:0.133333"
       transform="matrix(7.5,0,0,-7.5,0,3000)"
       d="m 34.75,305.69922 c -0.325,-0.05 -0.74987,-0.0335 -1.283203,0.0332 -1.6,0.13334 -2.800651,1.3349 -3.333985,3.60156 -0.266666,1.86667 -1.066796,4.79935 -1.466796,6.66602 -0.666667,2.8 -0.4,3.46628 2,3.59961 1.466666,0.13333 4.933463,2.13424 7.466796,4.26758 4.133334,3.6 13.867188,9.46679 15.867188,9.46679 0.4,0 0.666016,-1.46731 0.666016,-3.33398 0,-1.86667 0.801041,-3.33346 1.734375,-3.4668 0.8,0 0.266015,-0.66679 -1.333985,-1.46679 C 53.333073,324.26641 52,323.06706 52,322.40039 c 0,-2 -2.533073,-1.06745 -3.066406,1.19922 -0.4,1.33333 -0.800261,0.26771 -0.933594,-2.26563 -0.133333,-3.86666 -0.400651,-4.26666 -1.333984,-2 -1.066667,2.53334 -1.199219,2.53295 -1.199219,-0.40039 C 45.333464,316.66693 44.533333,316 42,316 c -1.866667,0 -3.333984,-0.53255 -3.333984,-1.19922 0,-2.8 -4.132032,-2.66771 -5.332032,0.26563 -0.666666,1.73333 -1.201172,2.13411 -1.201172,0.80078 -0.133333,-1.06667 0.39974,-2.53399 1.066407,-3.33399 0.666666,-0.66666 1.6,-2.53281 2,-4.13281 0.6,-1.8 0.525781,-2.55117 -0.449219,-2.70117 z" />
    <path
       d="M810 655 c0 -19 4 -35 9 -35 5 0 9 16 8 35 -3 46 -17 46 -17 0z"
       id="path1086" />
    <path
       d="M1100 674 c0 -12 -7 -15 -26 -11 -16 3 -22 1 -16 -5 5 -5 25 -8 43 -6 33 3 33 4 17 21 -16 15 -18 15 -18 1z"
       id="path1088" />
    <path
       d="M1618 672 c-19 -4 -25 -32 -7 -32 5 0 7 5 4 10 -4 7 3 9 19 6 14 -3 26 -1 26 4 0 11 -21 17 -42 12z"
       id="path1090" />
    <path
       id="path1092"
       style="stroke-width:0.133333"
       transform="matrix(7.5,0,0,-7.5,0,3000)"
       d="m 285.09766,309.80859 c -0.64688,0.0727 -1.09766,0.39219 -1.09766,0.99219 0,0.66667 -0.93333,0.79844 -2,0.39844 -1.46667,-0.66667 -2,0.13424 -2,2.26758 0,2.4 0.39922,2.66731 1.19922,1.33398 0.66667,-0.93333 1.7332,-1.46693 2.5332,-0.93359 0.8,0.4 1.73334,-7.8e-4 2,-0.80078 0.4,-1.06667 0.80078,-0.80065 0.80078,0.66601 0.13334,1.86667 0.53386,2.0013 1.86719,0.66797 1.33333,-1.2 1.46706,-2.13307 0.40039,-3.06641 -1,-1.08333 -2.625,-1.64648 -3.70312,-1.52539 z" />
    <path
       d="M1250 645 c0 -26 -15 -34 -23 -12 -3 6 -6 2 -6 -10 -1 -16 3 -20 19 -16 14 4 20 14 20 34 0 16 -2 29 -5 29 -3 0 -5 -11 -5 -25z"
       id="path1094" />
    <path
       d="M1027 618 c-3 -12 -2 -29 3 -37 6 -10 10 -11 10 -3 0 8 19 12 59 12 59 0 91 15 91 43 0 7 -7 4 -14 -6 -14 -18 -14 -18 -19 0 -4 15 -5 15 -6 2 -2 -25 -57 -30 -83 -7 -27 23 -34 23 -41 -4z"
       id="path1096" />
    <path
       d="M1546 625 c-21 -22 -21 -22 14 -17 17 2 29 9 27 15 -6 18 -24 19 -41 2z"
       id="path1098" />
    <path
       d="M1890 617 c0 -15 5 -18 23 -13 12 3 27 6 33 6 7 0 14 6 17 13 4 10 -6 13 -34 13 -32 0 -39 -4 -39 -19z"
       id="path1100" />
    <path
       id="path1102"
       style="stroke-width:0.133333"
       transform="matrix(7.5,0,0,-7.5,0,3000)"
       d="M 306.81055,315.54297 C 306.47461,315.55 306.2,315.7 306,316 c -0.53333,0.8 -1.46758,0.9332 -2.26758,0.5332 -0.93333,-0.66666 -1.19935,-0.26692 -0.66601,1.06641 0.8,2.4 -3.86589,4.40091 -5.19922,2.26758 -0.4,-0.66667 -1.7336,-1.19974 -2.9336,-1.06641 -1.86666,0 -1.73294,0.26589 0.40039,1.19922 2.53334,0.93333 2.39922,1.06667 -0.80078,2 -2.66666,0.66667 -3.33359,1.4668 -2.93359,3.4668 0.4,1.33333 1.33333,2.5332 2,2.5332 0.8,0 1.06654,-0.93333 0.5332,-2 -0.4,-1.06667 -0.13346,-2 0.53321,-2 0.66666,0 1.4677,1.33359 1.73437,2.93359 l 0.5332,3.06641 0.26563,-3.06641 c 0,-1.6 0.80156,-2.93359 1.60156,-2.93359 0.8,0 1.19883,0.79909 0.79883,1.73242 -0.4,1.06667 0.40052,1.86719 1.86719,1.86719 2,0.13333 2.39909,-0.39974 1.73242,-3.06641 -0.53333,-1.86666 -0.26537,-3.19922 0.66797,-3.19922 0.8,0 1.59961,1.3336 1.59961,2.9336 0.13333,2.8 0.26744,2.79844 0.80078,0.39844 0.4,-1.46667 1.59935,-3.3323 2.66601,-4.26563 1.86667,-1.46667 1.86667,-1.86771 0,-3.73437 -0.83333,-0.75 -1.56315,-1.13477 -2.12304,-1.12305 z" />
    <path
       d="M2076 615 c-3 -10 -20 -15 -48 -15 -34 -1 -39 -3 -26 -11 12 -7 30 -7 54 0 19 5 42 7 50 4 21 -8 17 15 -5 26 -14 8 -20 7 -25 -4z"
       id="path1104" />
    <path
       d="M961 613 c0 -6 -12 -10 -26 -8 -33 3 -33 -23 0 -31 32 -8 38 -2 32 28 -2 12 -5 18 -6 11z"
       id="path1106" />
    <path
       d="M540 598 c0 -5 -4 -6 -10 -3 -5 3 -10 0 -10 -9 0 -8 7 -13 18 -11 9 2 23 4 30 4 19 1 14 18 -8 24 -11 3 -20 1 -20 -5z"
       id="path1108" />
    <path
       d="M762 588 c-8 -8 -7 -15 5 -26 21 -21 79 -52 98 -52 8 0 15 -6 15 -13 0 -17 87 -37 195 -44 56 -4 93 -11 97 -19 6 -9 16 -10 43 -2 41 13 37 29 -5 23 -20 -2 -30 1 -30 10 0 8 -9 12 -25 10 -14 -1 -28 1 -31 6 -2 4 -11 6 -19 2 -8 -3 -15 0 -15 7 0 6 -5 8 -10 5 -6 -4 -17 -1 -25 5 -8 6 -18 9 -24 6 -5 -3 -11 0 -14 8 -3 7 -23 17 -44 21 -47 10 -43 9 -73 23 -30 13 -82 26 -94 23 -4 -1 -14 3 -20 8 -9 7 -16 7 -24 -1z m101 -35 c18 -3 35 -10 39 -16 3 -6 16 -12 28 -14 21 -3 50 -25 50 -38 0 -3 -10 0 -22 7 -13 6 -27 13 -33 14 -20 3 -105 47 -112 57 -4 6 -1 7 6 3 7 -5 27 -10 44 -13z"
       id="path1110" />
    <path
       d="M1926 584 c-9 -8 -15 -23 -15 -32 1 -15 2 -15 6 1 5 21 17 22 32 3 10 -11 8 -16 -9 -21 -11 -3 -18 -10 -15 -15 3 -5 8 -33 11 -62 3 -29 8 -55 10 -57 4 -4 8 70 5 100 -1 11 9 18 30 23 45 9 49 8 49 -9 0 -16 21 -29 61 -38 24 -6 25 -4 21 23 -2 16 -8 27 -13 24 -5 -2 -21 2 -37 10 -16 8 -32 12 -36 9 -3 -4 -6 -1 -6 5 0 7 -9 12 -21 12 -12 0 -23 8 -26 20 -6 24 -26 26 -47 4z"
       id="path1112" />
    <path
       id="path1114"
       style="stroke-width:0.133333"
       transform="matrix(7.5,0,0,-7.5,0,3000)"
       d="m 28.640625,321.82812 c -0.386719,-0.12656 -0.723828,0.45586 -1.173828,1.50586 -0.4,1.2 -0.800781,3.73347 -0.800781,5.4668 0,1.86667 -0.532032,2.9332 -1.332032,2.5332 -0.8,-0.4 -0.933203,0.13204 -0.533203,1.33204 0.533334,1.06666 5.466406,5.33398 11.066407,9.33398 5.599999,4 10.933333,7.86745 12,8.80078 1.333333,1.2 2.00026,1.19909 2.933593,-0.26758 0.8,-1.33333 1.199219,-0.53294 1.199219,2.40039 v 4.40039 l 2.666016,-2.66796 C 56.266016,353.06602 59.066667,352 62,352 c 2.533333,0 4.666016,-0.66732 4.666016,-1.33398 0,-0.8 1.200781,-1.33204 2.800781,-1.33204 2.266667,0 2.665625,0.6655 2.265625,4.79883 -0.266667,2.8 -1.331771,5.33386 -2.398438,5.86719 -10.4,4.8 -14.667968,7.20039 -14.667968,8.40039 0,0.8 1.067057,0.39922 2.40039,-0.80078 1.333334,-1.33333 3.866797,-2.26563 5.466797,-2.26563 5.066667,0 13.467318,-5.46653 13.333985,-8.5332 0,-2.8 -0.134506,-2.80143 -1.201172,-0.13476 -0.933334,2.13333 -1.199219,1.60156 -1.199219,-2.39844 -0.133333,-3.2 -0.800912,-5.33386 -2.267578,-5.86719 -1.066667,-0.4 -1.732032,-1.59987 -1.332031,-2.5332 C 70.267188,344.80052 70.000651,344 69.333984,344 68.533984,344 68,344.80052 68,345.86719 c 0,1.06666 -0.933333,2.13268 -2,2.66601 -1.2,0.4 -2,-6.5e-4 -2,-1.33398 0,-1.06667 0.667318,-1.59922 1.333984,-1.19922 0.8,0.4 1.332032,0.13346 1.332032,-0.5332 0,-2.53334 -2.932943,-1.60078 -3.59961,1.19922 -0.533333,2.13333 -1.066536,2.40117 -2.533203,1.20117 -1.466667,-1.2 -1.867187,-1.0668 -1.867187,0.5332 0,2.66667 -3.732162,1.6 -6.798828,-2 -1.2,-1.33333 -2.533594,-1.99961 -2.933594,-1.59961 C 48.533594,345.33411 47.2,344.6668 46,343.4668 c -1.2,-1.2 -3.066667,-2.13282 -4,-2.13282 -1.066667,0 -2.666276,-1.06653 -3.599609,-2.5332 -0.933334,-1.33333 -2.266407,-2.40091 -3.066407,-2.26758 -0.666666,0 -2.401562,-3.0664 -3.601562,-7.0664 -1.666667,-5.25 -2.447266,-7.42774 -3.091797,-7.63868 z" />
    <path
       d="M684 576 c-6 -6 -14 -23 -17 -38 -7 -28 -28 -41 -52 -32 -20 8 -19 24 3 40 16 12 15 13 -5 11 -17 -1 -23 -7 -23 -27 0 -14 -4 -20 -8 -14 -4 6 -15 11 -24 11 -14 0 -18 -8 -17 -36 1 -35 1 -36 10 -9 11 29 38 29 40 -1 0 -13 2 -12 8 3 5 14 10 16 15 8 4 -7 12 -10 17 -7 5 4 9 -2 10 -12 0 -16 1 -16 10 2 5 11 16 31 24 45 15 25 15 25 15 3 0 -13 5 -23 11 -23 6 0 8 9 4 20 -4 11 -2 20 4 20 6 0 11 7 11 16 0 8 -4 13 -9 9 -5 -3 -11 1 -13 9 -2 11 -6 11 -14 2z"
       id="path1116" />
    <path
       d="M2123 563 c-21 -8 -15 -18 11 -21 13 -1 27 5 30 13 5 15 -15 19 -41 8z"
       id="path1118" />
    <path
       d="M1483 533 c0 -16 2 -22 4 -15 3 6 11 12 19 12 8 0 14 8 14 18 0 14 -2 15 -10 2 -6 -10 -10 -11 -10 -2 0 6 -4 12 -9 12 -5 0 -8 -12 -8 -27z"
       id="path1120" />
    <path
       d="M420 513 c0 -22 2 -25 10 -13 8 13 10 13 10 -2 0 -10 9 -22 20 -28 18 -10 20 -8 19 27 0 30 -2 34 -9 18 -8 -20 -8 -20 -16 0 -14 31 -34 29 -34 -2z"
       id="path1122" />
    <path
       d="M773 493 c-7 -2 -13 -12 -12 -21 0 -11 2 -12 6 -4 7 17 23 15 23 -4 0 -8 5 -12 10 -9 6 3 10 1 10 -5 0 -6 5 -8 11 -5 5 4 18 -2 28 -14 10 -11 21 -18 25 -14 3 3 6 -9 6 -29 0 -31 5 -37 43 -55 69 -34 103 -38 255 -30 20 1 32 16 15 18 -46 6 -69 5 -75 -5 -4 -6 -8 3 -8 21 0 26 -3 30 -19 26 -10 -3 -32 2 -49 11 -17 9 -39 16 -49 16 -10 0 -38 14 -63 30 -25 16 -46 25 -48 20 -2 -5 -13 -1 -24 10 -12 11 -25 17 -30 14 -4 -3 -8 1 -8 9 0 12 -24 30 -33 26 -1 0 -8 -3 -14 -6z m157 -119 c0 -21 -3 -24 -13 -15 -8 6 -16 8 -20 5 -3 -3 -3 3 0 15 8 30 33 26 33 -5z m51 -16 c0 -10 2 -10 6 -1 3 10 8 9 20 -2 9 -10 20 -12 27 -7 15 12 58 0 64 -17 3 -10 0 -12 -12 -8 -9 4 -16 1 -16 -6 0 -8 -4 -6 -10 3 -9 13 -10 13 -10 0 0 -9 -3 -11 -8 -5 -4 6 -17 10 -30 9 -12 -1 -25 3 -28 7 -3 5 -14 9 -25 9 -10 0 -19 7 -19 15 0 18 40 20 41 3z"
       id="path1124" />
    <path
       id="path1126"
       style="stroke-width:0.133333"
       transform="matrix(7.5,0,0,-7.5,0,3000)"
       d="m 284.36719,333.83398 c -0.26667,0.13334 -0.36719,0.63334 -0.36719,1.5 0,1.73334 0.80065,2.13243 3.33398,1.73243 2.53334,-0.53334 3.33204,-0.1323 3.33204,1.73437 0,2 1.06796,2.5332 4.66796,2.5332 2.53334,0 4.66602,0.53308 4.66602,1.06641 0,0.66667 0.79909,1.19922 1.73242,1.19922 0.8,0.13333 5.4681,0.66784 10.13477,1.20117 7.06666,0.8 8.39857,0.66641 7.86523,-0.93359 -0.26666,-1.06667 -3.59922,-2.39974 -7.19922,-3.06641 -3.6,-0.53333 -9.19987,-2.13346 -12.5332,-3.4668 -3.46667,-1.46666 -6.13372,-2.00117 -6.40039,-1.20117 -0.4,0.8 -1.33372,0.66771 -2.40039,-0.26562 -1.06667,-0.93334 -2.2655,-1.20078 -2.79883,-0.80078 -0.4,0.53333 -1.6013,0.26679 -2.66797,-0.53321 -0.66666,-0.6 -1.09857,-0.83255 -1.36523,-0.69922 z" />
    <path
       d="M693 474 c-3 -7 -3 -19 0 -26 3 -7 6 -2 6 11 l1 24 25 -27 25 -27 -2 25 c-3 28 -46 44 -55 20z"
       id="path1128" />
    <path
       id="path1130"
       style="stroke-width:0.133333"
       transform="matrix(7.5,0,0,-7.5,0,3000)"
       d="m 45.976562,336.64844 c -0.402083,0.0188 -0.642578,0.1513 -0.642578,0.41797 0,0.53333 1.866667,2.13398 4,3.33398 3.866667,2.4 5.731771,1.19935 2.398438,-1.33398 -1.9,-1.5 -4.54961,-2.47422 -5.75586,-2.41797 z" />
    <path
       id="path1132"
       style="stroke-width:0.133333"
       transform="matrix(7.5,0,0,-7.5,0,3000)"
       d="m 23.710938,338.82031 c -1.030892,-0.0319 -1.001823,1.11263 -0.910157,4.7793 0.133334,2.93333 0.398828,3.86706 0.798828,2.40039 1.2,-4.93333 3.467448,-5.73359 2.800782,-0.93359 -0.4,2.4 -0.133464,4.6664 0.533203,5.0664 0.533333,0.4 1.066406,-1.7332 1.066406,-4.5332 0,-3.6 -0.666146,-5.59948 -2.132812,-6.13281 -1,-0.375 -1.687663,-0.632 -2.15625,-0.64649 z" />
    <path
       d="M584 435 c-4 -11 -12 -23 -18 -27 -6 -4 -7 -10 -4 -14 4 -3 20 3 36 15 17 12 35 21 41 21 6 0 11 4 11 10 0 6 -9 6 -24 0 -17 -6 -26 -5 -29 3 -3 7 -8 4 -13 -8z"
       id="path1134" />
    <path
       d="M713 400 c0 -30 1 -47 4 -37 2 9 11 17 19 17 8 0 12 5 9 10 -4 6 -10 8 -15 5 -5 -3 -11 9 -13 27 -2 19 -4 10 -4 -22z"
       id="path1136" />
    <path
       d="M1960 436 c0 -21 21 -34 71 -41 33 -5 49 -3 55 6 4 7 3 14 -4 17 -7 2 -12 10 -12 18 0 8 -8 14 -17 14 -13 0 -14 -3 -5 -12 15 -15 16 -38 1 -38 -5 0 -7 5 -4 10 3 6 0 10 -7 11 -32 2 -53 9 -56 18 -5 16 -22 13 -22 -3z"
       id="path1138" />
    <path
       d="M1686 354 c-14 -20 -21 -23 -26 -13 -7 10 -12 10 -25 -1 -13 -11 -21 -11 -35 -2 -15 9 -19 7 -23 -9 -5 -19 -27 -27 -27 -9 0 19 -16 10 -17 -10 -2 -17 2 -19 25 -14 15 4 33 11 40 17 22 17 38 -8 18 -28 -9 -9 -16 -21 -16 -27 0 -6 27 15 59 47 33 32 58 63 55 67 -7 11 -6 11 -28 -18z"
       id="path1142" />
    <path
       d="M1940 369 c0 -14 -25 -39 -39 -39 -19 0 -12 -30 14 -65 40 -52 100 -178 86 -183 -19 -6 -12 -22 9 -22 11 0 20 -4 20 -10 0 -5 7 -10 15 -10 8 0 15 5 15 10 0 6 -5 10 -11 10 -5 0 -8 4 -5 9 6 8 -30 94 -55 131 -5 8 -12 23 -15 33 -4 9 -10 17 -15 17 -5 0 -9 6 -9 14 0 8 -7 16 -15 20 -30 11 -14 23 30 22 25 -1 45 -4 45 -8 0 -5 -4 -8 -10 -8 -5 0 -10 -9 -10 -20 0 -11 4 -20 9 -20 12 0 61 -47 61 -60 0 -5 5 -10 10 -10 15 0 29 -43 19 -55 -4 -6 -2 -24 5 -40 7 -17 18 -42 24 -57 17 -41 31 -34 28 15 -3 46 -28 111 -39 100 -4 -3 -7 3 -7 15 0 11 -3 29 -6 39 -7 25 24 -16 54 -71 12 -22 22 -35 22 -28 0 7 5 10 10 7 6 -4 8 -11 4 -16 -3 -5 -2 -15 3 -22 5 -7 9 -24 8 -40 -1 -16 4 -27 12 -27 18 0 16 51 -4 102 -9 24 -19 45 -22 48 -4 3 -20 23 -36 45 -16 22 -45 55 -65 73 -29 27 -32 34 -20 42 11 7 8 10 -16 10 -40 0 -63 24 -37 38 25 14 10 26 -16 13 -13 -7 -22 -8 -26 -1 -8 13 -25 13 -25 -1z"
       id="path1144" />
    <path
       d="M2153 373 c-24 -2 -43 -8 -43 -14 0 -5 3 -9 8 -10 4 0 16 -2 27 -4 10 -2 25 0 31 6 6 5 19 6 29 3 12 -5 16 -3 13 6 -5 16 -11 17 -65 13z"
       id="path1146" />
    <path
       d="M591 363 c-1 -6 -4 -20 -8 -30 -6 -16 -5 -16 10 -4 9 7 17 10 17 5 0 -5 5 -1 11 9 12 21 2 38 -10 18 -7 -11 -10 -11 -14 0 -3 9 -6 9 -6 2z"
       id="path1148" />
    <path
       d="M652 346 c20 -38 48 -43 48 -9 0 9 -6 13 -15 9 -9 -3 -15 0 -15 8 0 7 -7 13 -14 13 -12 0 -13 -5 -4 -21z"
       id="path1150" />
    <path
       d="M730 364 c0 -20 59 -90 97 -116 38 -25 43 -23 36 14 -5 24 -3 29 7 23 8 -5 10 -20 7 -41 -4 -25 -2 -34 9 -34 8 0 14 -4 14 -9 0 -11 -39 -3 -57 12 -7 5 -13 6 -13 2 0 -14 34 -34 58 -35 15 0 22 6 22 20 0 11 -4 20 -10 20 -5 0 -10 8 -10 18 0 14 2 15 10 2 6 -10 10 -11 10 -2 0 6 4 12 9 12 5 0 8 -15 6 -32 -3 -18 -1 -38 3 -44 10 -15 112 -84 124 -84 6 0 18 -8 27 -17 9 -10 30 -19 46 -21 17 -2 51 -5 78 -8 50 -6 58 0 30 22 -17 11 -16 13 10 23 15 6 27 15 27 21 0 6 -11 5 -27 -4 -16 -7 -47 -17 -70 -21 -35 -5 -42 -4 -46 12 -4 14 -5 13 -6 -6 -1 -17 -5 -21 -17 -17 -9 3 -18 6 -20 6 -2 0 -4 5 -4 11 0 5 4 8 9 4 5 -3 12 -1 15 3 5 9 -72 39 -86 34 -5 -1 -8 5 -8 13 0 13 -18 20 -42 16 -5 0 -8 14 -9 32 -1 30 -1 31 -9 7 -8 -24 -8 -23 -9 8 -1 30 1 32 19 22 11 -6 21 -21 21 -33 1 -17 2 -18 6 -4 2 9 9 15 14 12 5 -4 9 1 9 9 0 9 -3 15 -7 14 -12 -3 -57 23 -66 38 -4 7 -16 11 -27 9 -11 -2 -20 0 -20 6 0 5 -9 18 -20 29 -16 16 -20 17 -20 5 0 -8 -5 -15 -11 -15 -8 0 -8 -4 0 -14 24 -29 -10 -27 -39 3 -35 35 -37 41 -10 34 11 -3 17 -9 14 -14 -3 -5 2 -9 10 -9 26 0 29 21 8 43 -18 18 -92 35 -92 21z"
       id="path1152" />
    <path
       d="M2043 359 c-16 -6 -15 -8 8 -17 15 -6 29 -17 31 -24 3 -7 7 1 10 19 5 33 -6 38 -49 22z"
       id="path1154" />
    <path
       d="M2276 358 c7 -20 -12 -25 -19 -5 -4 8 -6 7 -6 -3 0 -8 15 -25 34 -38 19 -12 35 -27 35 -32 0 -6 4 -10 9 -10 10 0 9 56 -2 66 -4 4 -7 1 -7 -6 0 -7 -11 0 -25 16 -14 16 -23 21 -19 12z"
       id="path1156" />
    <path
       d="M2374 335 c1 -33 16 -52 16 -21 0 8 9 18 21 21 20 7 20 8 -6 21 -15 8 -28 14 -29 14 -2 0 -2 -16 -2 -35z"
       id="path1158" />
    <path
       id="path1160"
       style="stroke-width:0.133333"
       transform="matrix(7.5,0,0,-7.5,0,3000)"
       d="m 27.117188,352.81641 c -0.383334,0.0167 -0.651042,0.44974 -0.984376,1.3164 -0.399999,1.2 -0.798828,4.26693 -0.798828,6.9336 0,3.73333 0.398698,4.40026 1.332032,2.93359 0.666666,-1.06667 1.333463,-3.46732 1.466796,-5.33398 0.266667,-2.93334 0.267448,-3.06511 0.800782,-0.39844 0.666666,3.33333 4.40039,5.33177 4.40039,2.39844 0,-1.06667 -0.533984,-2 -1.333984,-2 -0.666667,0 -1.333984,-0.6668 -1.333984,-1.4668 0,-0.8 -0.798568,-2.26589 -1.865235,-3.19922 -0.8,-0.8 -1.30026,-1.20026 -1.683593,-1.18359 z" />
    <path
       id="path1162"
       style="stroke-width:0.133333"
       transform="matrix(7.5,0,0,-7.5,0,3000)"
       d="m 95.324219,357.11328 c -0.25,-0.0875 -0.423438,0.98672 -0.523438,2.88672 -0.133333,4.66667 -1.600651,8.26615 -3.333984,8.13281 -2.933333,-0.4 -4.800781,0.001 -4.800781,1.20117 0,0.66667 1.733333,0.93178 4,0.39844 4.533333,-0.8 5.601172,1.46797 1.201172,2.66797 -3.6,0.93333 -6.266928,-0.13411 -6.933594,-2.80078 -0.533334,-2 -0.667448,-2 -0.800782,0 C 84.132812,370.93294 83.066667,372 82,372 c -1.066667,0 -2,0.6668 -2,1.4668 0,0.66666 -0.533984,0.9332 -1.333984,0.5332 -0.666667,-0.4 -1.332032,-0.2668 -1.332032,0.5332 0,0.8 -0.933333,1.06602 -2,0.66602 -1.333333,-0.53333 -2,0.002 -2,1.60156 0,2.13333 -0.267317,2.26654 -1.333984,0.5332 -1.066667,-1.73333 -1.333984,-1.73437 -1.333984,0.26563 0,1.2 -0.932813,3.20091 -2.132813,4.26758 -1.866667,2 -1.866667,2.13281 0,2.13281 1.2,0 2.132813,0.40078 2.132813,0.80078 0,1.46667 -3.733204,4.39961 -4.533204,3.59961 -1.466666,-1.46667 -0.799739,-6.80013 0.933594,-7.4668 0.8,-0.26666 1.200781,-0.93346 0.800782,-1.46679 -0.533334,-0.53334 -1.866928,-7.8e-4 -2.933594,1.19922 -1.2,1.06666 -2.666797,2 -3.466797,2 -0.8,0 -1.466797,0.66679 -1.466797,1.46679 0,0.66667 -0.667318,0.93321 -1.333984,0.53321 -0.8,-0.4 -1.332032,-0.13347 -1.332032,0.5332 0,2 -4.934895,1.86719 -5.601562,-0.13281 -0.4,-1.06667 -1.598698,-0.53217 -3.332031,1.20117 -3.466667,3.46666 -8.400651,6.26588 -9.333985,5.19922 -1.066666,-1.06667 1.067058,-3.60078 2.400391,-2.80078 0.666667,0.53333 1.199219,-0.13204 1.199219,-1.33204 0,-1.6 -0.533204,-1.86796 -2.533204,-0.66796 -1.466666,0.66666 -3.599348,2.26679 -4.666015,3.46679 -1.2,1.06667 -2.132813,1.46797 -2.132813,0.66797 0,-0.8 -1.201302,-0.40117 -2.667968,0.79883 -3.2,2.8 -3.332683,3.99987 -0.666016,6.5332 1.066667,1.2 2,1.46797 2,0.66797 0,-0.66667 -0.533984,-1.73476 -1.333984,-2.13476 -2.666667,-1.6 -1.332292,-3.19948 1.734375,-2.13282 1.733333,0.66667 3.999218,0.66667 5.199218,0 1.466667,-0.8 2.534506,-0.66575 3.201172,0.26758 0.533334,1.06667 1.2,0.93242 2,-0.26758 C 43.734115,393.06654 44,393.06706 44,394.40039 c 0,0.93333 0.532552,1.46641 1.199219,1.06641 0.666666,-0.4 2.667968,0.53333 4.667969,2 4.399999,3.46666 6.266276,2.26653 5.599609,-3.4668 -0.4,-2.53333 -6.51e-4,-4.93398 0.666015,-5.33398 0.666667,-0.53334 1.201172,-0.13256 1.201172,0.80078 0,0.93333 1.066537,0.26744 2.533204,-1.19922 2.933333,-3.6 4.132812,-3.73516 4.132812,-0.53516 0,1.2 -1.467318,3.46745 -3.333984,4.80078 -3.733334,2.8 -4.398698,5.73438 -1.332032,5.73438 1.066667,0 2,-0.93477 2,-2.13477 0,-1.86666 0.265365,-1.86614 1.332032,-0.13281 0.933333,1.6 1.467057,1.33268 2.40039,-1.33398 0.666667,-1.86667 1.733724,-3.19974 2.400391,-3.06641 1.866667,0.53333 6.40013,-1.19883 7.466797,-2.79883 0.533333,-0.8 1.466666,-1.4668 2,-1.4668 0.533333,-0.13333 4.40039,-2.26744 8.40039,-4.80078 4,-2.53333 9.066407,-5.33229 11.066407,-6.26562 2,-0.93334 3.333593,-2.26693 2.933593,-2.9336 -0.533333,-0.8 1.066796,-0.66822 3.466796,0.39844 5.6,2.26667 6.26628,4.40156 1.59961,5.60156 -2,0.4 -7.20013,3.19948 -11.466796,6.13282 -4.4,2.8 -8.534505,4.80039 -9.201172,4.40039 -0.8,-0.53334 -1.065495,-0.13308 -0.798828,0.93359 0.4,1.06667 1.60026,1.73346 2.933594,1.4668 1.2,-0.26667 2.132291,0.3987 2.265624,1.33203 0,0.93333 0.533985,0.4013 1.333985,-1.33203 0.933333,-2.53334 1.999739,-2.93516 5.066406,-2.53516 2.266667,0.4 4.532552,1.0668 5.199219,1.4668 1.599998,0.93333 0.400388,6.40104 -1.59961,7.73437 C 97.199479,399.60026 97.59974,400 99.066406,400 c 1.200004,0 3.067184,-1.46732 3.867184,-3.33398 1.6,-3.6 2.2655,-3.86537 12.79883,-3.33204 4.26667,0.13334 7.86784,-0.40156 9.20117,-1.60156 1.6,-1.2 1.99922,-1.19948 1.19922,-0.13281 -1.6,2.8 3.46628,8.26706 7.59961,8.40039 h 3.86719 l -3.86719,-4.5332 c -2,-2.4 -4.13268,-4.13386 -4.66601,-3.86719 C 128.39974,391.86628 128,391.33372 128,390.40039 c 0,-1.06667 -1.73333,-2.93281 -4,-4.13281 -2.13333,-1.33334 -4.8,-3.33373 -6,-4.40039 -1.73333,-1.86667 -2.40091,-1.86758 -4.26758,-0.26758 -2,1.46667 -2.13151,1.33463 -1.46484,-1.33203 0.53333,-2 0.26497,-2.9336 -1.06836,-2.9336 -1.06667,0 -1.86524,-1.3345 -1.86524,-3.20117 C 109.33398,370.66615 102.26706,364 98.400391,364 97.067057,364 96,363.3332 96,362.5332 96,361.86654 96.667318,361.6 97.333984,362 c 0.8,0.4 1.332032,0.13346 1.332032,-0.5332 0,-0.8 -0.532552,-1.4668 -1.199219,-1.4668 -0.666667,0 -1.600521,-1.06706 -1.867188,-2.40039 -0.1,-0.3 -0.192057,-0.45716 -0.27539,-0.48633 z m -18.923828,23.01953 c 0.533333,-0.13333 0.933593,0.40026 0.933593,0.9336 0,0.66666 -1.201302,2.26627 -2.667968,3.59961 C 72.132682,387.06602 72,386.93424 72,384.26758 c 0,-2.4 1.467057,-3.8681 4.400391,-4.13477 z m 31.617189,2.2168 c 0.98333,-0.15 1.7832,0.1168 2.7832,0.7168 1.46667,0.93333 2.5332,1.99987 2.5332,2.5332 0,0.66667 -0.93333,1.06641 -2,1.06641 -1.06666,0 -2.00143,0.80156 -2.13476,1.60156 0,1.06666 -0.26602,1.19896 -0.66602,0.26562 -0.26666,-0.8 -2.39987,-1.06744 -4.5332,-0.80078 -5.2,0.8 -5.067187,-0.39961 0.13281,-3.59961 1.73334,-1.06666 2.90143,-1.6332 3.88477,-1.7832 z M 117.4668,388 c 1.33333,0 2.5332,0.93333 2.5332,2 0,2.13333 -1.19987,2.53255 -4.5332,1.19922 -2.66667,-1.06667 -1.46667,-3.19922 2,-3.19922 z" />
    <path
       d="M1722 318 c-13 -6 -21 -17 -18 -24 3 -8 0 -11 -10 -7 -9 3 -14 -2 -14 -16 0 -30 29 -27 57 6 22 25 31 54 16 52 -5 0 -18 -5 -31 -11z"
       id="path1164" />
    <path
       id="path1166"
       style="stroke-width:0.133333"
       transform="matrix(7.5,0,0,-7.5,0,3000)"
       d="m 336.46094,356.58203 c -0.52224,0.22988 -0.91891,0.52069 -1.12696,0.88477 -0.83701,1.30201 -0.72866,1.9511 0.97461,2.4082 0.0397,-0.89419 0.1008,-2.16978 0.15235,-3.29297 z" />
    <path
       id="path1168"
       style="stroke-width:0.133333"
       transform="matrix(7.5,0,0,-7.5,0,3000)"
       d="m 62.400391,357.4668 c -0.266667,0 -2.133724,0.93385 -4.400391,1.86718 -2.933333,1.33334 -4.266927,1.3323 -4.933594,0.26563 C 52.39974,358.53294 52,358.80091 52,360.26758 c 0,1.33333 -0.533984,2.39844 -1.333984,2.39844 -0.666667,0 -5.2,1.73333 -10,4 -4.8,2.13333 -8.932032,4 -9.332032,4 -0.266666,0 -0.799739,-1.33308 -1.066406,-3.06641 -0.266667,-1.6 -0.400911,-0.66667 -0.267578,2 0.266667,2.8 -0.134115,5.46719 -0.800781,5.86719 -1.466667,0.8 -1.599479,4.5332 -0.132813,4.5332 0.533334,0 1.732683,-1.86667 2.666016,-4 1.066667,-2.26667 2.267448,-3.73398 2.800781,-3.33398 0.666667,0.26666 2.266276,-0.53243 3.599609,-1.73243 C 40.799479,368.40026 41.59987,368 44.533203,368 c 1.066667,0 2.934245,-1.06706 4.267578,-2.40039 1.333334,-1.2 2.398438,-2.13385 2.398438,-1.86719 0.266666,0.8 11.466797,-4.26536 11.466797,-5.33203 0,-0.53333 -0.132292,-1.06693 -0.265625,-0.93359 z" />
    <path
       d="M1841 287 c-1 -14 -6 -17 -22 -12 -12 4 -24 3 -28 -2 -10 -15 -61 -44 -84 -49 -36 -6 -77 -26 -77 -36 0 -5 -8 -8 -17 -6 -12 2 -19 -4 -21 -19 -4 -26 -12 -29 -31 -10 -11 10 -12 8 -6 -13 3 -14 6 -36 6 -50 -1 -34 53 -99 69 -84 8 9 8 15 -3 25 -18 18 -29 61 -14 53 8 -5 7 -2 0 7 -14 14 -18 53 -5 45 4 -2 16 -22 27 -43 11 -21 23 -40 26 -43 4 -3 8 -14 10 -25 3 -13 14 -21 33 -23 15 -2 27 0 24 5 -39 87 -55 113 -73 114 -11 0 -15 3 -8 6 9 3 10 9 1 23 -9 14 -8 21 4 33 8 8 19 12 24 9 18 -13 61 -88 79 -137 10 -27 19 -51 20 -53 6 -8 34 12 29 22 -3 6 2 2 10 -8 15 -19 16 -18 16 13 0 18 -4 30 -8 27 -4 -3 -17 12 -28 32 -10 20 -29 45 -41 55 -28 22 -30 53 -4 66 16 9 23 4 47 -34 15 -25 32 -45 37 -45 4 0 6 -4 3 -8 -3 -5 1 -20 9 -35 8 -15 12 -27 10 -27 -2 0 1 -13 6 -30 6 -16 18 -30 26 -30 10 0 13 5 8 17 -4 10 -8 25 -10 33 -2 8 -4 15 -5 15 -1 0 -4 11 -6 25 -3 14 -9 26 -14 28 -6 2 -10 8 -10 13 0 8 -27 43 -59 76 -12 13 -12 16 0 24 19 12 52 11 44 -1 -3 -6 1 -13 9 -16 9 -3 16 -10 16 -16 0 -5 11 -24 23 -41 28 -37 57 -108 57 -137 0 -13 7 -20 20 -20 11 0 20 7 20 15 0 8 -5 15 -11 15 -5 0 -9 8 -8 18 3 28 -29 105 -67 157 -12 17 -29 46 -37 65 -10 21 -16 28 -16 17z"
       id="path1170" />
    <path
       d="M2253 270 c1 -10 5 -18 11 -17 5 1 13 -9 17 -23 l7 -25 1 25 c1 14 -8 33 -18 42 -18 16 -20 15 -18 -2z"
       id="path1172" />
    <path
       d="M2350 278 c0 -10 5 -18 10 -18 6 0 10 -6 10 -12 1 -14 34 -58 44 -58 15 0 3 29 -29 65 -24 29 -34 35 -35 23z"
       id="path1174" />
    <path
       d="M1461 262 c-1 -13 -5 -21 -9 -18 -10 6 -42 -29 -42 -47 0 -12 -60 -41 -85 -42 -19 -1 -35 -16 -35 -35 0 -13 6 -18 20 -15 29 6 41 15 35 26 -4 5 5 9 19 9 14 0 27 4 30 9 3 4 20 11 38 15 l33 7 -22 18 -23 19 43 17 c23 10 55 19 71 21 35 5 40 9 31 23 -4 8 -12 8 -25 1 -13 -7 -21 -7 -25 0 -10 16 -35 11 -36 -7 0 -15 -2 -15 -9 2 -8 19 -9 19 -9 -3z"
       id="path1178" />
    <path
       d="M2180 226 c0 -24 5 -36 14 -36 8 0 26 -20 40 -45 15 -25 31 -45 36 -45 15 0 12 -48 -2 -53 -10 -4 -10 -6 0 -6 6 -1 13 -11 13 -23 1 -21 2 -21 6 -3 3 11 10 26 15 33 6 7 7 12 1 12 -5 0 -11 21 -12 47 -1 51 -11 74 -11 27 0 -28 -1 -27 -21 14 -12 23 -25 42 -30 42 -5 0 -9 7 -9 15 0 8 -4 15 -10 15 -5 0 -10 6 -10 14 0 8 -4 18 -10 21 -6 4 -10 -8 -10 -29z"
       id="path1180" />
    <path
       d="M460 231 c0 -15 -6 -21 -21 -21 -11 0 -17 -4 -14 -10 3 -5 1 -10 -4 -10 -6 0 -11 -7 -11 -16 0 -8 4 -13 9 -9 5 3 12 -3 14 -12 4 -17 5 -17 6 -1 0 10 19 27 41 38 27 14 38 25 34 35 -4 8 -10 12 -15 9 -6 -3 -16 0 -24 6 -12 10 -15 9 -15 -9z"
       id="path1182" />
    <path
       id="path1184"
       style="stroke-width:0.133333"
       transform="matrix(7.5,0,0,-7.5,0,3000)"
       d="m 51.880859,368.06445 c -1.47526,-0.10286 -4.296875,0.75261 -6.546875,2.33594 -5.2,3.46667 -8.666406,6.93359 -7.066406,6.93359 0.933333,0 2.39961,-0.93333 3.59961,-2 1.066666,-1.06666 3.199348,-2 4.666015,-2 1.6,0 2.800781,-0.80143 2.800781,-2.13476 0,-1.06667 0.532552,-1.73255 1.199219,-1.19922 0.666667,0.4 1.599479,0.13398 2.132813,-0.66602 0.5,-0.8 0.1,-1.20781 -0.785157,-1.26953 z" />
    <path
       id="path1190"
       style="stroke-width:0.133333"
       transform="matrix(7.5,0,0,-7.5,0,3000)"
       d="m 26.291016,369.80664 c -0.548698,0.0675 -0.957032,1.52591 -0.957032,3.39258 0,3.86667 -1.468229,4.93424 -5.601562,4.26758 -2,-0.26667 -1.066016,4.80026 1.333984,6.93359 2.133334,2 2.4,1.86654 4,-1.4668 2.133334,-4.8 2.933464,-12.13307 1.466797,-13.0664 -0.08333,-0.05 -0.163802,-0.0702 -0.242187,-0.0605 z" />
    <path
       d="M1196 195 c-3 -8 -12 -15 -20 -15 -8 0 -18 -4 -21 -10 -4 -6 6 -7 27 -4 42 8 50 16 33 31 -10 10 -14 9 -19 -2z"
       id="path1192" />
    <path
       id="path1194"
       style="stroke-width:0.133333"
       transform="matrix(7.5,0,0,-7.5,0,3000)"
       d="m 329.30078,375.80078 c -0.76667,0.0333 -1.76654,0.3319 -3.0332,0.86524 -4,1.6 -3.46745,3.33398 1.19922,3.33398 3.46666,0 4.80013,-1.4668 3.46679,-3.4668 -0.33333,-0.53333 -0.86614,-0.76575 -1.63281,-0.73242 z" />
    <path
       d="M1230 153 c-8 -3 -22 -7 -30 -10 -21 -9 -28 -10 -45 -12 -8 0 -15 -10 -15 -21 0 -11 7 -20 15 -20 8 0 15 4 15 8 0 4 23 16 50 26 28 10 52 21 54 25 5 8 -22 11 -44 4z"
       id="path1196" />
    <path
       d="M1509 116 c-4 -4 -47 -11 -92 -15 -4 -1 -2 -10 5 -20 9 -15 15 -17 25 -9 9 7 13 7 13 -1 0 -6 7 -11 16 -11 14 0 14 3 4 15 -10 13 -9 15 12 15 13 0 33 7 44 15 19 14 19 14 -2 15 -11 0 -23 -2 -25 -4z"
       id="path1200" />
    <path
       d="M599 63 c0 -25 -1 -26 -9 -8 -7 19 -8 19 -15 2 -8 -20 -2 -30 20 -33 11 -2 15 8 15 32 0 40 -10 46 -11 7z"
       id="path1202" />
    <path
       d="M1364 75 c-4 -8 -10 -12 -15 -9 -5 3 -9 -2 -9 -10 0 -9 -13 -22 -30 -31 -37 -19 -38 -25 -5 -25 18 0 28 7 35 26 l10 26 25 -26 c25 -27 49 -33 60 -16 4 6 1 9 -7 8 -7 -2 -12 4 -10 13 1 11 -4 16 -15 15 -13 -1 -17 5 -15 22 4 25 -15 30 -24 7z"
       id="path1204" />
    <path
       d="M2331 47 c-1 -35 3 -47 12 -45 6 3 13 15 15 27 2 15 9 21 18 17 10 -4 14 2 14 22 0 21 -2 24 -10 12 -6 -10 -10 -11 -10 -2 0 6 -5 12 -11 12 -5 0 -8 -4 -5 -9 4 -5 3 -17 -1 -28 -6 -15 -9 -13 -14 12 -6 25 -7 22 -8 -18z"
       id="path1206" />
    <path
       d="M551 35 c-1 -13 -4 -16 -9 -8 -5 8 -14 6 -31 -8 l-23 -19 25 0 c28 0 52 23 44 42 -3 7 -6 4 -6 -7z"
       id="path1208" />
    <path
       d="M1498 33 c-21 -5 -24 -33 -5 -33 7 0 18 5 25 12 9 9 12 9 12 0 0 -7 10 -12 22 -12 l22 0 -22 20 c-22 20 -24 21 -54 13z"
       id="path1210" />
  </g>
</svg>
