<?xml version="1.0" encoding="utf-8"?>
<!-- Svg Vector Icons : http://www.onlinewebfonts.com/icon -->
<!DOCTYPE svg PUBLIC "-//W3C//DTD SVG 1.1//EN" "http://www.w3.org/Graphics/SVG/1.1/DTD/svg11.dtd">
<svg version="1.1" xmlns="http://www.w3.org/2000/svg" xmlns:xlink="http://www.w3.org/1999/xlink" x="0px" y="0px" viewBox="0 0 256 256" enable-background="new 0 0 256 256" xml:space="preserve">
<metadata> Svg Vector Icons : http://www.onlinewebfonts.com/icon </metadata>
<g><g><g><path fill="#000000" d="M123.6,27.8c-1.5,0.2-4.5,1.2-6.8,2.1c-4,1.6-4.4,1.6-12,1.3c-8.8-0.5-12.6,0.2-17.9,3.1c-3.5,2-5.7,4-15.3,14.7c-4.1,4.5-11.7,12-16.8,16.7C40.9,78.4,28.6,90.9,24.4,96.9c-3.9,5.5-8.7,15-10.5,20.5c-3.5,10.9-4.9,29.9-3.1,41.8c6,38.9,33.9,61,85.9,68c8.7,1.2,12.4,1.3,32.3,1.3c24.8,0.1,32.5-0.6,48.4-3.8c21.4-4.3,37.5-12.1,48.9-23.7c9.9-10,15.9-22.8,18.9-39.7c1.1-6.8,1-25.3-0.3-32.3c-4-21.7-14.2-37.6-38.3-59.6c-5.7-5.1-15.7-14.8-22.3-21.5c-16-16.3-16.9-16.7-32.6-16.8c-9.2-0.1-10.1-0.1-13.8-1.6C133.7,27.8,127.7,27,123.6,27.8z M134.9,43.5c4.7,1.9,4.7,2,15.1,2c8.7,0,10.8,0.2,12.3,1c1.1,0.6,5,4.3,8.7,8.3c3.8,4,12.5,12.4,19.4,18.8c21.3,19.5,28.9,28.2,34.4,39.5c5.7,11.5,7.5,21.3,7,36.5c-0.5,14.9-3.3,24.5-9.8,34.2c-11.7,17.6-33.6,27-69.9,30.2c-11.2,1-38.6,0.8-49.1-0.3c-21.2-2.2-39.2-7.5-50.9-15c-20.6-13-29.7-32.8-27.7-59.9c1.6-21.5,9-34.3,32-55.3C70.3,70.8,76.2,65,84.6,55.7c9.8-10.7,9.8-10.8,21.2-10.2l8.5,0.4l5.7-2.1c3.1-1.1,6.7-2.1,7.9-2.1C129.2,41.6,132.2,42.4,134.9,43.5z"/><path fill="#000000" d="M144.8,50.3c-2.2,1-4.4,4.1-4.4,6.2c0,3.9,1.6,5.3,16.5,15.1c13.3,8.7,18.8,15,20.3,23.5c0.8,4.9,1.4,5.9,3.9,7.3c2.2,1.1,4.4,1.1,6.5-0.1c2.6-1.4,3.6-3.2,3.6-6.9c0-9.6-5.6-19.6-15.7-27.9c-5.9-4.8-24.8-17.3-27-17.7C147.5,49.5,145.9,49.8,144.8,50.3z"/><path fill="#000000" d="M111.7,50.4c-0.9,0.4-6.6,3.9-17.1,10.9c-3.2,2.2-8.3,6.2-11.1,8.9c-8.6,8.1-12.4,15.3-13,24.2L70.2,99l2.2,2.2c1.8,1.8,2.5,2.1,4.9,2.1s3.1-0.3,4.7-2c1.6-1.6,2-2.6,2.4-5.4c1.1-9.3,7.4-16.2,24.5-27c8.9-5.6,11.2-7.8,11.5-10.8c0.3-2.7-0.5-4.7-2.8-6.3C116,50.4,113.1,49.8,111.7,50.4z"/><path fill="#000000" d="M127.1,56.3c-1.1,0.6-2.3,2.3-3.7,5.3c-2.7,5.7-7.5,11.8-12.4,15.8c-9.2,7.4-13.5,13.8-14.8,22.1c-0.9,5.4-0.4,8.1,1.9,10c2.4,2,4.8,2.4,7.4,1.3c2.8-1.1,4-3.1,4.7-7.8c0.7-5.2,1.8-7.1,6.1-11.1c13.2-12.1,16.3-15.7,20.2-24.2c1.5-3.2,1.8-4.5,1.6-6.5C137.2,56.2,131.7,53.8,127.1,56.3z"/></g></g></g>
</svg>